<svg width="12" height="20" viewBox="0 0 12 20" fill="none" xmlns="http://www.w3.org/2000/svg">
<path d="M11.5558 9.2196L2.65555 0.319509C2.4497 0.113495 2.1749 -3.58416e-07 1.8819 -3.07185e-07C1.58889 -2.55955e-07 1.3141 0.113495 1.10824 0.319509L0.452802 0.974789C0.026302 1.40178 0.0263021 2.09576 0.452803 2.52209L7.92656 9.99585L0.444513 17.4779C0.238661 17.6839 0.125003 17.9586 0.125003 18.2514C0.125003 18.5446 0.238661 18.8192 0.444513 19.0254L1.09995 19.6805C1.30597 19.8865 1.5806 20 1.87361 20C2.16661 20 2.44141 19.8865 2.64726 19.6805L11.5558 10.7723C11.7621 10.5656 11.8755 10.2897 11.8748 9.99634C11.8755 9.70187 11.7621 9.4261 11.5558 9.2196Z" fill="black" fill-opacity="0.5"/>
</svg>
