<svg width="12" height="8" viewBox="0 0 12 8" fill="none" xmlns="http://www.w3.org/2000/svg">
<path d="M5.14724 7.25691C5.08654 7.196 5.03532 7.12992 4.99076 7.0604L0.340179 2.4096C-0.113322 1.95589 -0.113537 1.21978 0.340394 0.765852C0.79411 0.311922 1.53 0.311922 1.98414 0.765852L5.98945 4.77116L10.0156 0.745189C10.4694 0.291258 11.205 0.291258 11.6594 0.745189C11.8867 0.972262 11.9999 1.26993 11.9999 1.56696C11.9999 1.86398 11.8867 2.16187 11.6594 2.38872L6.98728 7.0604C6.94273 7.12992 6.8915 7.19643 6.83081 7.25691C6.59878 7.48893 6.29315 7.60085 5.98902 7.59526C5.6849 7.60086 5.37948 7.48893 5.14724 7.25691Z" fill="#9B9B9B"/>
</svg>
