<svg width="12" height="12" viewBox="0 0 12 12" fill="none" xmlns="http://www.w3.org/2000/svg">
<g clip-path="url(#clip0_84_2207)">
<path d="M7.06127 5.99987L11.7801 1.28102C12.0733 0.988097 12.0733 0.51281 11.7801 0.219883C11.4869 -0.0732943 11.0122 -0.0732943 10.719 0.219883L6.00012 4.93873L1.28102 0.219883C0.987847 -0.0732943 0.51306 -0.0732943 0.219883 0.219883C-0.0732943 0.51281 -0.0732943 0.988097 0.219883 1.28102L4.93898 5.99987L0.219883 10.7187C-0.0732943 11.0117 -0.0732943 11.4869 0.219883 11.7799C0.366471 11.9262 0.558587 11.9995 0.750453 11.9995C0.942319 11.9995 1.13444 11.9262 1.28102 11.7796L6.00012 7.06076L10.719 11.7796C10.8656 11.9262 11.0577 11.9995 11.2495 11.9995C11.4414 11.9995 11.6335 11.9262 11.7801 11.7796C12.0733 11.4867 12.0733 11.0114 11.7801 10.7185L7.06127 5.99987Z" fill="#9B9B9B"/>
</g>
<defs>
<clipPath id="clip0_84_2207">
<rect width="12" height="12" fill="white"/>
</clipPath>
</defs>
</svg>
