<svg width="10" height="10" viewBox="0 0 10 10" fill="none" xmlns="http://www.w3.org/2000/svg">
<g clip-path="url(#clip0_242_6039)">
<path d="M5.90748 5.00019L8.98654 1.921C9.07124 1.83623 9.11797 1.72315 9.11811 1.60256C9.11811 1.48191 9.07137 1.36869 8.98654 1.28407L8.71672 1.01431C8.63189 0.929345 8.51881 0.882812 8.39809 0.882812C8.27757 0.882812 8.16449 0.929345 8.07966 1.01431L5.00059 4.09331L1.9214 1.01431C1.8367 0.929345 1.72355 0.882812 1.6029 0.882812C1.48238 0.882812 1.36923 0.929345 1.28453 1.01431L1.01458 1.28407C0.838891 1.45975 0.838891 1.74551 1.01458 1.921L4.09371 5.00019L1.01458 8.07925C0.929814 8.16415 0.883147 8.27724 0.883147 8.39782C0.883147 8.5184 0.929814 8.63149 1.01458 8.71632L1.28447 8.98607C1.36916 9.07097 1.48238 9.11757 1.60283 9.11757C1.72348 9.11757 1.83663 9.07097 1.92133 8.98607L5.00053 5.90701L8.07959 8.98607C8.16442 9.07097 8.2775 9.11757 8.39802 9.11757H8.39815C8.51874 9.11757 8.63182 9.07097 8.71665 8.98607L8.98648 8.71632C9.07117 8.63156 9.11791 8.5184 9.11791 8.39782C9.11791 8.27724 9.07117 8.16415 8.98648 8.07932L5.90748 5.00019Z" fill="white"/>
</g>
<defs>
<clipPath id="clip0_242_6039">
<rect width="8.23529" height="8.23529" fill="white" transform="translate(0.882812 0.882812)"/>
</clipPath>
</defs>
</svg>
