<svg width="60" height="60" viewBox="0 0 60 60" fill="none" xmlns="http://www.w3.org/2000/svg">
<g clip-path="url(#clip0_242_5782)">
<path d="M54.7266 14.1797H44.5661L43.2562 7.6309C42.9288 5.99332 41.479 4.80469 39.8089 4.80469H20.1911C18.5211 4.80469 17.0712 5.99332 16.7438 7.6309L15.4339 14.1797H5.27344C2.36566 14.1797 0 16.5454 0 19.4531V49.9219C0 52.8296 2.36566 55.1953 5.27344 55.1953H54.7266C57.6343 55.1953 60 52.8296 60 49.9219V19.4531C60 16.5454 57.6343 14.1797 54.7266 14.1797ZM20.1911 8.32031H39.8089L40.9808 14.1797H19.0192L20.1911 8.32031ZM56.4844 49.9219C56.4844 50.8911 55.6958 51.6797 54.7266 51.6797H5.27344C4.30418 51.6797 3.51562 50.8911 3.51562 49.9219V19.4531C3.51562 18.4839 4.30418 17.6953 5.27344 17.6953H54.7266C55.6958 17.6953 56.4844 18.4839 56.4844 19.4531V49.9219Z" fill="black" fill-opacity="0.25"/>
<path d="M30 21.6797C22.8274 21.6797 16.9922 27.5149 16.9922 34.6875C16.9922 41.8601 22.8274 47.6953 30 47.6953C37.1726 47.6953 43.0078 41.8601 43.0078 34.6875C43.0078 27.5149 37.1726 21.6797 30 21.6797ZM30 44.1797C24.7659 44.1797 20.5078 39.9214 20.5078 34.6875C20.5078 29.4536 24.7659 25.1953 30 25.1953C35.2341 25.1953 39.4922 29.4536 39.4922 34.6875C39.4922 39.9214 35.2341 44.1797 30 44.1797Z" fill="black" fill-opacity="0.25"/>
<path d="M15 21.6797H9.375C8.40422 21.6797 7.61719 22.4667 7.61719 23.4375C7.61719 24.4083 8.40422 25.1953 9.375 25.1953H15C15.9708 25.1953 16.7578 24.4083 16.7578 23.4375C16.7578 22.4667 15.9708 21.6797 15 21.6797Z" fill="black" fill-opacity="0.25"/>
</g>
<defs>
<clipPath id="clip0_242_5782">
<rect width="60" height="60" fill="white"/>
</clipPath>
</defs>
</svg>
