<svg
   xmlns="http://www.w3.org/2000/svg"
   width="866.60168"
   height="472.12137"
   fill="#AAAAAA"
>
  <g
     transform="translate(-90.850815,-147.88033)">
    <path
       d="M 834.25189,618.05308 C 836.80135,616.18887 836.80876,615.77925 834.42301,608.5964 C 833.05143,604.46695 830.7627,599.64772 829.33694,597.88699 C 827.07983,595.09958 826.9968,594.19966 828.6947,590.92693 C 829.76723,588.85963 831.3106,587.08613 832.12441,586.9858 C 832.93823,586.88548 834.84084,586.72131 836.35242,586.62099 C 839.67387,586.40053 841.31389,581.18224 839.26495,577.35377 C 838.21146,575.38529 838.29723,573.95389 839.55984,572.43253 C 841.36732,570.25465 841.31594,570.04361 836.49789,559.85672 C 835.06676,556.83086 835.02484,555.4098 836.32065,553.84845 C 837.63339,552.26668 837.51793,551.38851 835.81097,549.97185 C 834.59718,548.96451 833.60408,546.57903 833.60408,544.67082 C 833.60408,542.7626 833.10538,541.20133 832.49584,541.20133 C 831.22337,541.20133 827.02747,547.32256 827.38781,548.65322 C 827.51964,549.14007 825.99951,550.40969 824.00973,551.47459 C 822.01994,552.53949 820.01013,554.932 819.54348,556.79128 C 819.07682,558.65056 818.15645,560.17179 817.49819,560.17179 C 816.83993,560.17179 815.35536,561.11779 814.19914,562.27399 C 811.13407,565.33908 806.57193,563.52543 803.63665,558.07495 C 801.81264,554.68797 799.97824,553.26854 797.274,553.15164 C 795.18414,553.06128 790.98213,552.74447 787.9362,552.44762 C 784.89026,552.15076 782.08561,552.41354 781.70363,553.0316 C 780.68126,554.68584 775.39845,553.3476 771.19893,550.37054 C 765.99959,546.68473 764.67013,545.92499 761.37041,544.75391 C 758.5989,543.77031 758.62387,543.67258 761.86606,542.81399 L 765.28025,541.90985 L 761.50125,537.83223 C 759.4228,535.58956 757.72224,533.13179 757.72224,532.37055 C 757.72224,531.60931 757.03691,530.98647 756.19929,530.98647 C 755.36166,530.98647 752.89915,529.31262 750.72705,527.26681 C 747.03078,523.78549 746.07653,523.5958 735.83325,524.30622 C 720.13836,525.39476 718.32417,525.70856 718.30399,527.3383 C 718.29406,528.1409 715.99571,530.28112 713.19656,532.09433 C 707.41054,535.84237 706.81818,538.23502 711.02573,540.86268 C 714.2893,542.90081 714.99391,549.78284 712.22274,552.55401 C 711.27283,553.50392 710.43708,558.70375 710.35811,564.15518 C 710.23211,572.85517 709.72907,574.55198 706.1451,578.36606 L 702.07519,582.69731 L 695.62713,580.3786 C 690.33796,578.47663 688.72115,578.39475 686.63108,579.92306 C 684.55075,581.44423 683.3559,581.4102 680.12149,579.73761 C 676.56011,577.89595 675.63513,577.99866 670.96438,580.75447 C 668.10682,582.44047 665.38944,585.33145 664.92578,587.17886 C 664.3311,589.54827 662.67344,590.80219 659.29889,591.43527 C 656.66776,591.92886 653.35212,593.61773 651.93076,595.18831 C 650.50942,596.75887 648.67211,597.62708 647.84784,597.11766 C 647.02357,596.60823 642.57042,596.32779 637.95194,596.49445 C 630.96839,596.74647 629.05575,596.2619 626.59087,593.61617 C 624.66207,591.54585 622.57367,590.71032 620.61077,591.22363 C 618.58132,591.75433 617.10653,591.10061 616.10299,589.22548 C 614.23687,585.7386 603.91081,585.39736 597.7346,588.61849 C 595.43571,589.81744 592.34076,590.80244 590.85693,590.80739 C 587.79935,590.81757 579.69178,582.79192 579.69178,579.75502 C 579.69178,577.58536 572.47349,573.30518 568.81447,573.30518 C 565.20099,573.30518 555.74697,567.70742 554.64052,564.91274 C 553.81926,562.83841 553.61092,563.00415 553.52756,565.79819 C 553.47115,567.68883 551.78332,571.18672 549.77683,573.57131 C 545.98168,578.08158 544.98786,584.71408 547.70068,587.4269 C 548.82388,588.55009 548.19181,590.07983 545.48692,592.78472 C 542.41492,595.85673 540.81159,596.40205 536.98337,595.67702 C 534.38862,595.18558 531.47356,594.16269 530.50547,593.40395 C 529.53739,592.64519 528.14764,592.39377 527.41715,592.84524 C 525.91123,593.77594 522.23446,589.94816 520.82334,585.98056 C 520.12301,584.01145 518.66488,583.45092 515.1293,583.79166 C 512.51533,584.04357 509.71997,583.4616 508.91737,582.49841 C 507.79896,581.1562 505.58343,581.46006 499.43215,583.79932 C 495.01787,585.47802 489.53837,586.78016 487.25547,586.69297 C 484.2807,586.57937 483.32439,587.10681 483.87999,588.55465 C 484.74694,590.8139 482.46208,591.97535 474.75038,593.19552 C 471.87212,593.65093 469.06442,594.30112 468.51104,594.6404 C 467.95767,594.97968 465.98766,593.64438 464.13324,591.67305 C 462.10486,589.5168 458.74514,587.90546 455.70019,587.62854 C 451.3978,587.23725 450.4361,586.45699 449.28721,582.4256 C 448.54384,579.81716 447.04563,577.68298 445.95784,577.68298 C 444.73077,577.68298 443.98003,576.0123 443.98003,573.28157 C 443.98003,569.68577 443.04254,568.4331 438.858,566.43763 C 435.20709,564.69664 433.28567,564.44538 432.16824,565.56281 C 429.69671,568.03434 425.0943,566.02775 422.72476,561.44558 C 420.43825,557.02396 416.25398,555.72847 416.25398,559.44216 C 416.25398,560.64605 415.26897,561.63105 414.06508,561.63105 C 412.35034,561.63105 411.87618,559.63373 411.87618,552.41068 C 411.87618,547.33948 410.84651,539.72301 409.58801,535.4852 C 408.32951,531.24737 407.60392,527.47597 407.97559,527.10431 C 408.34727,526.73263 407.07859,524.73151 405.15633,522.65736 C 400.82892,517.988 400.79927,517.01068 404.94467,515.68113 C 407.79873,514.76575 407.47497,514.48122 402.46851,513.50506 C 398.31942,512.69606 396.15412,512.93695 394.72449,514.36658 C 392.72966,516.36141 387.17966,516.28479 382.20368,514.1937 C 380.11398,513.31553 379.95255,512.80649 381.46694,511.87055 C 382.98956,510.92953 382.78068,510.19922 380.49485,508.47187 C 378.89357,507.26181 376.78319,506.25089 375.80514,506.22535 C 374.82709,506.19983 374.40484,505.19394 374.86681,503.99005 C 375.48108,502.38932 374.68455,501.80115 371.90249,501.80115 C 368.26795,501.80115 366.81706,499.1909 369.15312,496.85485 C 369.73332,496.27464 370.3527,493.53852 370.52952,490.77457 C 370.7927,486.66072 370.33668,485.74922 368.01534,485.74922 C 366.45572,485.74922 363.90195,484.4715 362.3403,482.90985 C 360.0684,480.63795 358.62064,480.32294 355.0964,481.33368 C 350.28907,482.7124 337.21392,480.38648 322.13132,475.46955 C 317.31574,473.89967 312.44242,472.61536 311.30172,472.61552 C 310.16103,472.61569 308.06822,471.5665 306.65106,470.28398 C 305.23389,469.00146 303.45475,468.33508 302.69742,468.80314 C 300.45193,470.19093 299.63642,477.54886 301.46615,479.91216 C 302.92844,481.80085 302.82165,481.83553 300.68746,480.16496 C 296.80021,477.12213 291.41595,478.52436 291.83434,482.47058 C 292.22717,486.17572 288.28879,487.02164 285.06241,483.92514 C 283.50963,482.43485 283.3088,483.16921 283.96494,487.93812 C 285.72115,500.70249 285.70547,500.96912 283.16738,501.48403 C 281.80212,501.76102 279.26424,500.35353 277.52767,498.35629 C 275.79108,496.35905 273.5658,495.03362 272.58261,495.41092 C 270.25886,496.30262 267.82006,493.26324 267.18385,488.68267 C 266.87412,486.45267 265.55789,484.83541 263.77596,484.49536 C 262.17919,484.19065 259.97688,482.66232 258.88195,481.09908 C 257.76386,479.50279 255.94715,478.61909 254.73771,479.08319 C 253.55331,479.53769 250.99476,479.51061 249.05206,479.02302 C 246.35526,478.34617 245.51985,477.15887 245.51985,474.00302 C 245.51985,468.94955 243.31177,467.25955 241.28408,470.76105 C 240.14499,472.72807 239.90314,471.67718 240.27174,466.36199 C 240.66509,460.69005 240.23545,459.09991 237.98403,457.895 C 236.45944,457.07906 235.31076,455.62493 235.43141,454.6636 C 235.97025,450.37026 235.13037,449.10839 232.02163,449.54065 C 229.56909,449.88169 228.62216,449.1806 228.27933,446.76993 C 227.87113,443.89963 227.18516,443.63152 222.07745,444.34595 C 218.70581,444.81754 216.33452,444.55024 216.33452,443.6986 C 216.33452,442.90076 213.54368,442.38869 210.13264,442.56065 C 205.06427,442.81615 203.84849,443.43509 203.48062,445.94705 C 203.23304,447.63761 202.05901,449.39359 200.87167,449.84922 C 198.4874,450.76415 196.6269,447.45634 197.80256,444.39263 C 199.21942,440.70035 196.73338,439.21928 190.51815,440.05293 C 185.79634,440.68625 184.27556,441.59371 183.6308,444.16265 C 182.78101,447.54849 176.93434,450.32873 176.93434,447.34698 C 176.93434,446.44095 175.89234,447.18731 174.61879,449.00556 C 172.85337,451.52604 172.69925,452.78865 173.97007,454.3199 C 175.26111,455.8755 175.04291,456.6625 173.00228,457.81062 C 170.52677,459.20339 170.57349,459.48538 173.77589,462.47941 C 176.10212,464.6543 176.91918,466.65329 176.34953,468.77606 C 175.8905,470.48662 175.50596,472.70703 175.495,473.71027 C 175.48404,474.71352 174.49007,475.53436 173.28617,475.53436 C 170.64904,475.53436 170.35766,480.74207 172.90665,482.31743 C 176.97287,484.83049 167.24826,485.15228 161.41379,482.69772 C 156.13208,480.47571 154.88946,480.41236 151.46219,482.19046 C 149.30823,483.30794 147.0991,484.15971 146.55301,484.08329 C 141.88853,483.43049 140.42579,484.54537 140.72883,488.52239 C 140.9062,490.85023 140.21757,493.75945 139.19852,494.98732 C 137.66164,496.83915 137.82671,497.47724 140.1666,498.72951 C 141.71808,499.55983 143.40216,499.82453 143.90898,499.31769 C 144.41581,498.81086 144.83049,499.16231 144.83049,500.09866 C 144.83049,501.1063 142.49547,501.80115 139.10937,501.80115 C 132.90852,501.80115 133.28415,501.18688 130.85496,515.29936 C 130.1431,519.43495 129.21637,520.77161 127.06096,520.77161 C 120.98306,520.77161 118.5637,518.08085 118.5637,511.32115 C 118.5637,507.78507 117.86437,504.45971 117.00963,503.93146 C 116.15489,503.4032 115.5678,501.23027 115.70499,499.10272 C 116.35636,489.00086 115.64689,486.49032 111.46923,484.11416 C 108.04114,482.16433 107.17188,480.50862 106.51455,474.67676 C 106.07609,470.78678 104.98228,467.35905 104.08386,467.05958 C 101.89069,466.32852 98.133967,458.87825 98.133967,455.25984 C 98.133967,453.66031 96.891257,451.48116 95.372387,450.41729 C 93.011317,448.76355 92.483167,445.88451 91.730807,430.56639 L 90.850817,412.64977 L 94.374567,416.45196 C 97.480617,419.80344 98.258247,420.02936 100.93468,418.3579 C 103.3743,416.83434 104.54462,416.81988 106.88957,418.28433 C 109.50984,419.92071 109.8081,419.74168 109.8081,416.53257 C 109.8081,414.56664 110.46477,412.55232 111.26737,412.05628 C 112.06996,411.56025 112.73175,411.68566 112.73802,412.33497 C 112.74941,413.5168 119.57321,417.16371 121.77315,417.16371 C 123.97685,417.16371 122.94206,412.93126 120.38778,411.4973 C 118.13104,410.23038 118.10177,409.96047 120.13613,409.17633 C 123.00661,408.0699 130.23782,410.69833 130.23782,412.84814 C 130.23782,414.97811 136.44584,413.01763 137.97148,410.40587 C 138.61331,409.3071 140.09082,408.40812 141.25483,408.40812 C 142.41885,408.40812 143.37122,407.82803 143.37122,407.11905 C 143.37122,406.41006 144.68456,405.48654 146.28975,405.06676 C 149.89334,404.1244 150.26701,396.60954 147.01987,390.38357 C 145.82614,388.09474 145.22857,384.71149 145.69195,382.86524 C 146.3985,380.05011 145.83665,379.35517 142.21005,378.55864 C 138.48203,377.73983 137.93296,377.00751 138.22867,373.24849 C 138.41732,370.8503 139.97991,367.57618 141.70108,365.97266 C 145.43728,362.49186 145.50218,361.8607 142.55626,357.65483 C 140.4084,354.58833 140.48722,354.32991 143.97477,353.00394 C 146.16354,352.17178 148.07075,349.9933 148.65761,347.65508 C 149.48994,344.33882 148.77726,342.91249 144.18521,338.70419 L 138.72271,333.69818 L 142.77924,329.46407 C 147.57792,324.45533 148.61333,324.25652 149.6311,328.14848 C 150.19072,330.28847 151.62157,331.06702 154.99485,331.06702 C 157.98568,331.06702 159.24619,330.502 158.59739,329.45222 C 157.19784,327.18769 160.81835,316.39223 164.28726,312.48646 C 165.87887,310.69441 168.39057,308.84432 169.86882,308.37514 C 172.66876,307.48647 173.65543,301.27382 171.23427,299.77746 C 170.50702,299.32799 170.2359,297.72168 170.63177,296.20786 C 171.02764,294.69405 170.63765,293.01428 169.76514,292.47503 C 167.39605,291.01086 167.8509,287.28903 170.39893,287.28903 C 171.62003,287.28903 173.36711,285.64736 174.28133,283.64087 C 175.19554,281.63438 176.82314,279.9927 177.89821,279.9927 C 178.97327,279.9927 179.85287,279.35914 179.85287,278.58478 C 179.85287,277.81042 181.26578,276.42069 182.99267,275.49649 C 185.66708,274.06519 185.99832,274.16573 185.22737,276.17478 C 184.02044,279.31998 186.49479,279.18823 188.89054,275.97972 C 189.93929,274.57518 193.94754,271.94198 197.79774,270.12817 C 205.40558,266.54416 209.01905,267.20728 211.97462,272.72982 C 214.59227,277.62092 216.43805,276.04661 215.43563,269.77784 C 214.78714,265.72244 215.03088,263.94078 216.23414,263.94078 C 217.18668,263.94078 217.51671,263.21376 216.96754,262.32517 C 216.31605,261.27104 216.92004,261.00891 218.7055,261.5709 C 224.50697,263.39696 237.43855,265.40004 243.42589,265.40004 C 249.68558,265.40004 255.14689,262.15357 253.46502,259.43228 C 251.90869,256.91407 254.39285,252.4547 257.62778,251.95964 C 259.39569,251.68909 260.67797,250.66248 260.47732,249.67829 C 260.27667,248.6941 261.42585,247.88885 263.03104,247.88885 C 264.83341,247.88885 265.95392,246.91221 265.96095,245.33514 C 265.97193,242.87506 271.84304,239.13325 275.69208,239.13325 C 276.71747,239.13325 278.7117,237.32741 280.12371,235.12027 C 283.66372,229.58682 286.48045,227.56379 290.75709,227.48319 C 295.86809,227.38687 297.53759,225.95817 298.67647,220.70609 C 299.51062,216.85937 300.49129,216.00806 304.91545,215.29012 C 308.77368,214.66401 311.21386,215.18534 314.12384,217.25742 C 316.30136,218.80795 318.40776,219.75177 318.80474,219.35478 C 319.20172,218.9578 320.39871,219.68392 321.46472,220.96838 C 322.73329,222.49692 322.88695,223.64346 321.90948,224.287 C 319.94871,225.57791 318.38866,231.83692 320.0277,231.83692 C 320.7269,231.83692 322.08698,233.3093 323.05008,235.10887 C 325.20247,239.13063 324.82152,269.6044 322.58518,272.29903 C 321.74384,273.31278 318.59969,274.87798 315.59818,275.77726 C 311.1032,277.12398 309.51376,277.00137 306.58424,275.08188 C 301.24912,271.58617 296.51537,256.80819 296.56254,243.79575 C 296.57764,239.63052 294.08753,240.91358 291.88381,246.20652 C 289.79323,251.22769 289.69606,251.61619 289.48024,255.81648 C 289.36093,258.1383 288.16201,259.71075 286.01448,260.362 C 280.36518,262.07517 276.16443,267.00826 276.16443,271.92926 C 276.16443,274.43792 275.37643,277.27847 274.41331,278.24159 C 273.2608,279.3941 273.20262,279.9927 274.24312,279.9927 C 275.11262,279.9927 276.16748,281.30604 276.58726,282.91124 C 277.43939,286.16982 281.19496,286.8098 283.00982,284.00569 C 283.65914,283.00244 284.1904,280.5542 284.1904,278.56515 C 284.1904,276.30796 285.13492,274.76239 286.7034,274.45301 C 288.70993,274.05722 289.17904,274.95135 289.03099,278.88942 C 288.65826,288.80406 295.52134,293.72059 298.36142,285.57349 C 299.88927,281.1907 299.94809,281.17009 308.04057,282.18118 C 312.96184,282.79605 316.88582,284.1518 317.96048,285.60856 C 318.95547,286.9573 319.13673,288.23422 318.37207,288.50812 C 316.0815,289.32864 318.46504,291.66683 321.59204,291.66683 C 325.10496,291.66683 328.18221,288.86606 328.92036,284.99694 C 329.221,283.42103 330.88356,281.97799 332.69683,281.7191 C 334.47847,281.46473 337.19665,279.65419 338.73722,277.69567 C 340.50845,275.44392 342.39689,274.46423 343.87372,275.03095 C 346.60972,276.08085 346.71868,277.00342 344.72576,282.24521 C 343.6028,285.19881 342.78645,285.76867 341.36647,284.59018 C 338.07733,281.86044 333.4263,284.23946 332.72617,289.00974 C 331.88852,294.71699 335.13187,298.08612 340.23764,296.8125 C 349.35643,294.53784 361.1974,295.56633 364.82756,298.94832 C 366.64579,300.64227 368.31623,301.25023 368.83701,300.40759 C 369.32799,299.61315 371.10607,298.96316 372.78828,298.96316 C 375.74478,298.96316 375.75953,299.05966 373.23041,301.85432 C 371.03798,304.27692 370.92465,305.11987 372.53113,307.05557 C 373.70054,308.46461 375.69133,309.05367 377.63516,308.56581 C 379.65054,308.05998 381.69208,308.72742 383.18905,310.38156 C 384.66237,312.00956 387.26591,312.87877 390.08442,312.68364 C 394.15764,312.40163 394.52666,312.71304 393.75633,315.78227 C 393.03012,318.6757 393.40888,319.14014 396.24791,318.83745 C 401.06912,318.32342 403.12058,316.7075 403.12058,313.42391 C 403.12058,308.19308 407.17244,308.66092 412.55853,314.51363 C 417.66556,320.06307 420.13279,324.75608 418.69772,326.19116 C 418.29002,326.59886 419.23559,328.21157 420.79898,329.77495 C 422.36238,331.33835 424.03141,334.56698 424.50795,336.94968 C 424.98449,339.33239 426.19691,341.28188 427.20221,341.28188 C 430.207,341.28188 432.61642,337.26277 431.57627,333.98555 C 431.03958,332.2946 431.39182,329.97951 432.36403,328.80809 C 433.60483,327.31303 433.64032,326.68922 432.48458,326.68922 C 429.90859,326.68922 430.56599,322.3989 433.76517,318.33181 C 435.37036,316.29115 436.6837,313.06839 436.6837,311.17013 C 436.6837,308.72148 437.51016,307.71876 439.52837,307.71876 C 441.09292,307.71876 445.50125,304.76375 449.32463,301.15206 C 453.14802,297.54038 456.42185,294.58537 456.59984,294.58537 C 456.77781,294.58537 458.60786,295.22578 460.6666,296.00851 C 465.7217,297.93046 465.53369,302.84448 460.1606,309.23314 C 457.0774,312.8991 456.11329,315.32107 456.64706,318.05957 C 457.10301,320.39875 456.49928,322.7171 455.05916,324.15722 C 453.78122,325.43517 452.73563,327.06098 452.73563,327.77016 C 452.73563,328.47933 451.40882,331.80576 449.78715,335.1622 C 447.92609,339.01417 447.1759,342.60842 447.75304,344.90792 C 448.41365,347.54 447.99372,348.80953 446.23985,349.48255 C 444.9047,349.99489 444.16584,351.33538 444.59793,352.4614 C 445.08225,353.72351 443.99508,355.0366 441.76326,355.88513 C 439.77209,356.64217 438.14297,357.8864 438.14297,358.65008 C 438.14297,359.41376 436.01926,361.09803 433.4236,362.39292 C 429.03245,364.58351 428.57574,364.57155 426.8569,362.22089 C 425.84087,360.83139 425.00957,360.22877 425.00957,360.88175 C 425.00957,361.53471 424.02457,361.25148 422.82068,360.25234 C 421.49533,359.15239 420.63178,359.03481 420.63178,359.95431 C 420.63178,363.67204 422.80276,366.3476 427.36664,368.25452 C 431.80449,370.10878 432.93431,370.02512 438.8609,367.4035 C 447.43728,363.60976 453.39202,357.98274 453.75967,353.32468 C 454.14697,348.41773 455.72054,347.02793 459.70828,348.07075 C 463.43917,349.0464 465.63404,355.23397 463.1355,357.73251 C 461.09997,359.76804 460.96002,366.0894 462.95049,366.0894 C 463.75309,366.0894 465.78792,367.46756 467.47235,369.15199 L 470.53494,372.21458 L 469.4489,368.79278 C 468.85158,366.91078 467.31796,364.60692 466.04087,363.67309 C 463.92965,362.12932 463.94892,361.721 466.25322,359.17479 C 467.6471,357.63456 468.78756,354.95355 468.78756,353.21703 C 468.78756,349.3963 463.30866,342.74977 460.13361,342.7188 C 458.87381,342.70652 456.99677,342.15953 455.96243,341.50328 C 453.60998,340.01076 455.84717,333.35605 460.29928,328.60297 C 462.44687,326.31023 463.12712,324.00789 462.71076,320.44141 C 462.13316,315.49377 464.08963,312.09656 467.51661,312.09656 C 468.49054,312.09656 470.65243,310.94739 472.32082,309.54284 C 475.27583,307.05514 475.29564,307.06457 473.08675,309.90766 C 471.83963,311.51285 470.6418,314.95228 470.42494,317.55084 C 470.10322,321.4057 470.72215,322.59056 473.78689,323.98695 C 475.85284,324.92826 477.54315,326.24969 477.54315,326.92346 C 477.54315,327.59722 478.50755,328.14848 479.68626,328.14848 C 482.4368,328.14848 480.92932,323.76431 477.27443,321.13423 C 474.06855,318.82725 473.7814,315.01509 476.81352,315.01509 C 478.01742,315.01509 479.00242,315.67176 479.00242,316.47436 C 479.00242,317.27695 480.06401,317.93362 481.36151,317.93362 C 482.9734,317.93362 483.4874,317.04185 482.98433,315.1181 C 482.44592,313.05922 482.96126,312.35631 484.90194,312.5025 C 486.36157,312.61244 487.23423,313.22276 486.84116,313.85875 C 486.44811,314.49473 487.13776,315.01509 488.37372,315.01509 C 489.60969,315.01509 491.03442,316.66248 491.53976,318.67597 C 492.0966,320.8946 493.83221,322.68159 495.94536,323.21195 C 500.19431,324.27836 500.45691,326.08084 496.51361,327.11204 C 494.52039,327.63328 493.59508,329.10249 493.59508,331.74616 C 493.59508,334.18926 494.18703,335.25121 495.19994,334.6252 C 496.15249,334.03649 496.02647,335.03947 494.88992,337.09279 C 493.83674,338.9955 493.18358,341.20892 493.43847,342.01151 C 493.99223,343.75519 494.78713,347.41806 494.9427,348.94303 C 495.10657,350.54939 499.43215,350.28087 499.43215,348.66434 C 499.43215,347.90911 498.80056,346.90086 498.02864,346.42378 C 497.13014,345.86847 497.13014,344.22808 498.02864,341.86486 C 498.80056,339.83452 499.43215,336.20292 499.43215,333.79462 C 499.43215,331.38632 500.14965,328.07521 501.0266,326.43662 C 502.1797,324.28204 502.1797,323.016 501.0266,321.8629 C 500.14965,320.98595 499.43215,319.323 499.43215,318.16745 C 499.43215,317.01192 498.45476,315.33741 497.26016,314.44633 C 495.7009,313.28323 495.33761,311.31638 495.97234,307.4741 L 496.85648,302.12201 L 506.89917,302.36667 C 513.97973,302.53917 516.94205,303.16449 516.94259,304.48675 C 516.94313,305.86632 517.66464,305.97615 519.67144,304.90214 C 521.73745,303.79644 522.31995,302.03143 522.07158,297.62954 C 521.85098,293.71987 522.42134,291.55689 523.81377,291.02257 C 524.95235,290.58566 525.51975,289.63895 525.07466,288.91877 C 523.91805,287.04734 533.3222,282.91124 538.73384,282.91124 C 541.44802,282.91124 543.6426,282.02295 544.14168,280.72234 C 545.07539,278.28914 549.04719,277.69838 549.04719,279.9927 C 549.04719,280.7953 550.22962,281.45197 551.67481,281.45197 C 554.9358,281.45197 562.1538,278.19002 562.1692,276.70936 C 562.17547,276.10741 563.70853,275.61491 565.57602,275.61491 C 568.48495,275.61491 568.88333,275.01448 568.35639,271.42427 C 567.57532,266.10245 574.60913,258.62065 577.85829,261.3172 C 579.4643,262.65008 579.47884,263.18037 577.93676,264.17678 C 576.42111,265.15612 576.48008,265.68657 578.23251,266.83696 C 579.43641,267.62727 581.24225,268.28394 582.2455,268.29623 C 583.24874,268.30852 584.06958,269.63192 584.06958,271.23711 C 584.06958,274.64907 586.69913,275.1474 587.91966,271.96674 C 589.22026,268.57744 595.67041,269.37553 601.22627,273.6132 C 605.08883,276.55932 605.79744,277.74992 604.28254,278.74836 C 602.67885,279.80533 602.78751,280.41383 604.86412,282.00539 C 608.53212,284.81663 608.0683,286.79763 602.32306,292.85869 C 599.52093,295.81486 597.22259,298.91439 597.21563,299.74657 C 597.20866,300.57875 594.24796,304.38784 590.63628,308.21123 C 587.02459,312.03461 584.09046,315.95044 584.11598,316.91304 C 584.14202,317.89453 585.01386,317.5416 586.10095,316.10954 C 587.16715,314.705 589.40035,313.55582 591.06362,313.55582 C 592.84133,313.55582 594.48337,312.30942 595.04756,310.53176 C 595.61345,308.74883 596.8343,307.82501 598.02221,308.28085 C 599.13037,308.7061 600.99415,308.09691 602.16394,306.92712 C 604.92758,304.16348 609.79308,304.19816 610.86408,306.98913 C 611.32606,308.19302 612.42007,309.17803 613.29522,309.17803 C 614.17037,309.17803 614.52496,308.59318 614.08318,307.87837 C 612.9044,305.97107 619.83911,301.8817 624.25229,301.8817 C 626.34434,301.8817 629.04104,302.8667 630.24493,304.07059 C 633.06504,306.89071 639.94914,306.86801 645.45572,304.02045 C 649.14784,302.11118 649.55709,301.35449 648.23431,298.88286 C 646.08918,294.87464 647.64623,293.07285 652.42859,294.02933 C 655.11262,294.56613 657.10602,294.06664 658.37322,292.53977 C 660.09239,290.46829 660.70279,290.54385 664.58603,293.30897 C 667.07309,295.07991 668.56431,297.23023 668.11585,298.39888 C 667.67105,299.55802 668.25483,300.42243 669.48244,300.42243 C 671.9354,300.42243 672.34963,302.72121 670.14248,304.0853 C 668.00903,305.40385 670.071,308.06757 672.50278,307.13441 C 673.83095,306.62475 674.54408,307.36731 674.54408,309.25995 C 674.54408,311.06184 676.07121,312.79444 678.55706,313.81284 C 684.24415,316.14275 688.5176,315.97769 687.88256,313.45264 C 687.59406,312.3055 687.13423,309.2184 686.86071,306.59243 C 686.44308,302.58299 686.73572,302.02629 688.68696,303.11826 C 692.0392,304.99427 696.43307,303.43754 696.43307,300.37384 C 696.43307,297.01977 699.17043,296.07878 703.40417,297.97747 C 707.60195,299.86004 711.70195,296.84205 708.095,294.52456 C 706.28574,293.36211 706.45614,292.97842 709.1044,292.25166 C 711.95375,291.46972 712.11113,290.96844 710.59336,287.50909 C 709.65994,285.38157 708.29468,283.21465 707.55945,282.6937 C 706.82421,282.17275 706.75093,280.53108 707.39659,279.04553 C 708.04226,277.55999 708.5018,275.95856 708.41777,275.48681 C 708.33375,275.01506 711.02034,273.22384 714.38798,271.50633 C 719.48323,268.90773 720.59015,268.74553 720.98277,270.53998 C 721.55619,273.16069 724.10179,273.41536 724.30458,270.87229 C 724.38458,269.86905 724.90669,270.68988 725.46482,272.69637 C 727.0382,278.35269 729.21872,277.00813 729.71866,270.07335 C 730.08933,264.93185 730.82934,263.55178 733.82664,262.41221 C 739.19307,260.37189 740.51237,260.69252 739.52687,263.79754 C 738.71287,266.36225 739.11151,266.46825 744.78049,265.19452 C 748.15445,264.43644 751.89201,264.19112 753.08618,264.64937 C 755.47976,265.56787 762.10004,260.1199 762.10004,257.23167 C 762.10004,256.22926 763.80009,253.38871 765.87792,250.91935 C 769.01898,247.18642 770.71457,246.42958 775.93666,246.42958 C 780.17349,246.42958 782.49088,247.14194 783.05748,248.61848 C 784.8658,253.33091 796.20592,249.72543 795.57634,244.63825 C 795.08255,240.64834 797.68916,235.92702 801.10215,234.6294 C 803.07156,233.88063 805.4375,231.26889 806.35976,228.82553 C 807.55214,225.66655 808.77836,224.57705 810.60402,225.05447 C 812.01611,225.42374 813.57454,225.07364 814.06722,224.27647 C 814.5599,223.4793 816.17809,223.14482 817.66319,223.53319 C 819.1483,223.92155 821.1246,223.32209 822.05498,222.20105 C 824.46992,219.29123 821.19944,215.785 816.07033,215.785 C 810.32003,215.785 809.71446,212.29537 814.5639,207.10404 C 816.85146,204.6552 818.4225,202.6516 818.05512,202.6516 C 817.68773,202.6516 818.57345,200.54467 820.02336,197.96952 C 824.0226,190.86666 829.66829,186.37544 843.08931,179.62031 C 845.4971,178.40841 848.5749,176.46365 849.92888,175.29862 C 851.28284,174.13359 853.01988,173.56927 853.78894,174.04458 C 854.55802,174.51989 855.58994,173.85942 856.08209,172.57686 C 856.6258,171.16 857.8948,170.59716 859.31601,171.14253 C 861.04968,171.8078 861.41562,171.41605 860.72985,169.62899 C 859.91329,167.50108 860.83696,167.31147 868.59334,168.01479 C 875.54718,168.64535 877.38206,168.38363 877.38206,166.76121 C 877.38206,165.54683 875.89444,164.71069 873.7339,164.71069 C 869.49816,164.71069 869.21869,163.90999 872.35855,160.77013 C 873.6086,159.52008 874.29878,157.63059 873.89229,156.57127 C 873.46733,155.46387 874.51709,154.22198 876.36208,153.64944 C 878.12696,153.10176 881.3768,151.38175 883.58394,149.82721 C 887.80373,146.85509 887.6472,146.73337 888.18063,153.40137 C 888.26089,154.40462 888.98323,155.71796 889.78582,156.31991 C 890.70275,157.0076 890.4473,157.9272 889.09845,158.79428 C 887.9178,159.55323 887.301,160.52339 887.72779,160.95018 C 888.50314,161.72552 893.92572,162.9382 897.5331,163.14298 C 898.60974,163.2041 898.98286,163.99642 898.38815,164.95867 C 897.67869,166.10661 898.12855,166.36065 899.76131,165.7341 C 901.34686,165.12567 902.18959,165.54603 902.18959,166.94538 C 902.18959,168.12409 901.53292,169.08848 900.73032,169.08848 C 899.92772,169.08848 899.40704,169.58099 899.57324,170.18293 C 899.73943,170.78488 897.92555,173.31388 895.54237,175.80294 C 892.03998,179.46091 890.7307,180.02659 888.71274,178.75369 C 886.75105,177.51629 885.74874,177.79728 884.03442,180.0652 C 882.83446,181.65267 881.8318,184.42902 881.80627,186.23486 C 881.771,188.73041 880.9052,189.51821 878.19782,189.51821 C 876.2387,189.51821 874.22993,188.86154 873.7339,188.05894 C 872.3915,185.88689 870.51648,186.29087 869.48688,188.97398 C 868.35887,191.91354 872.76877,195.52675 876.21891,194.48981 C 878.01137,193.95109 879.54767,195.39681 881.73141,199.67728 C 885.04498,206.17243 884.2135,209.99137 878.86223,212.85528 C 877.06434,213.81748 876.36351,215.23549 876.94147,216.74162 C 877.77954,218.92561 877.98974,218.92385 879.60171,216.71936 C 880.56436,215.40287 882.75709,214.32573 884.47445,214.32573 C 886.19181,214.32573 887.59693,213.62481 887.59693,212.76813 C 887.59693,210.95197 893.67837,212.50518 895.07566,214.67821 C 895.64921,215.57018 896.34747,215.51448 896.95707,214.52812 C 898.19712,212.52169 908.4269,212.8136 909.78356,214.89413 C 910.98981,216.74395 905.47949,223.08133 902.66485,223.08133 C 900.25923,223.08133 900.10945,225.54969 902.46737,226.33566 C 903.54809,226.69591 904.35206,230.93675 904.59519,237.55962 C 904.81012,243.41433 905.6893,250.33567 906.54892,252.94037 C 907.40856,255.54507 908.36758,259.00385 908.68008,260.62656 C 908.99258,262.24926 909.90548,265.95714 910.70874,268.86629 C 912.09295,273.87954 911.98685,274.15564 908.67613,274.15564 C 904.32817,274.15564 900.80797,280.39331 900.48356,288.67264 C 900.28619,293.7096 899.94172,294.28964 898.06681,292.74205 C 896.16606,291.17312 895.98832,291.7479 896.70715,297.13908 C 897.30911,301.6538 897.02268,303.34096 895.65422,303.34096 C 892.51742,303.34096 891.84931,309.5307 894.57821,313.30984 C 895.95538,315.21702 898.72383,319.82248 900.73032,323.54421 C 904.36484,330.28565 909.48592,333.46801 909.48592,328.98511 C 909.48592,327.72238 910.5475,326.68922 911.84501,326.68922 C 913.45303,326.68922 913.9708,327.58137 913.4713,329.49148 C 912.92548,331.57866 913.71988,332.57066 916.58446,333.37902 C 918.69974,333.97592 920.99092,334.3339 921.67598,334.17455 C 922.36105,334.01519 924.16689,334.28006 925.68897,334.76315 C 928.96481,335.80286 929.42444,339.82261 926.26748,339.82261 C 925.06358,339.82261 924.07858,341.04739 924.07858,342.54435 C 924.07858,346.46299 929.63343,352.95601 932.98588,352.95601 C 936.40837,352.95601 938.2661,356.86338 935.94647,359.18302 C 935.0373,360.09218 934.29344,363.23941 934.29344,366.17686 C 934.29344,370.11016 935.21592,372.21041 937.79383,374.14635 C 941.1218,376.64554 941.19686,377.05093 939.31782,382.37671 C 937.74485,386.835 937.7192,387.97839 939.19215,387.97839 C 941.61656,387.97839 947.42684,401.37351 947.42684,406.96277 C 947.42684,412.70065 943.66501,412.76236 938.33193,407.11195 C 936.14404,404.79388 931.55997,401.44097 928.14511,399.66104 C 915.97826,393.31934 893.43399,372.50428 893.43399,367.61239 C 893.43399,363.72284 890.3858,357.33381 888.5301,357.33381 C 887.61057,357.33381 887.70281,356.64422 888.76434,355.58269 C 891.35413,352.9929 891.02125,337.68121 888.32656,335.44481 C 887.12266,334.44567 886.13766,332.43401 886.13766,330.97446 C 886.13766,329.51491 885.4491,327.89517 884.60753,327.37506 C 883.54111,326.71598 883.5432,325.86815 884.61439,324.57744 C 885.71084,323.25631 885.42792,320.7735 883.62736,315.91533 C 881.5267,310.24748 881.41721,308.60253 882.97464,306.10871 C 885.09872,302.70752 884.21192,300.99703 876.8969,294.38558 C 874.26104,292.00324 872.63945,289.08523 872.63945,286.72443 C 872.63945,282.32361 870.5346,281.7826 867.73931,285.46495 C 865.03388,289.02889 865.24632,291.29339 868.62647,294.92154 C 870.27897,296.69529 871.545,300.07129 871.545,302.70408 C 871.545,305.2615 871.94593,309.35858 872.43595,311.8087 C 873.15342,315.39602 872.86235,316.19529 870.94121,315.91333 C 869.62907,315.72073 867.54924,314.12651 866.31934,312.37059 C 863.73514,308.68113 861.33014,308.19733 861.33014,311.36692 C 861.33014,312.57082 860.28365,313.55582 859.00462,313.55582 C 857.72559,313.55582 856.33567,314.86916 855.91589,316.47436 C 855.49612,318.07955 854.62478,319.39289 853.97955,319.39289 C 851.91076,319.39289 850.75556,328.14565 852.54049,330.29636 C 853.46636,331.41196 854.60016,336.14592 855.06008,340.81627 C 855.51998,345.48664 856.8379,351.17262 857.98877,353.45179 C 859.99933,357.43346 860.19144,357.49603 862.8946,355.0497 C 864.54271,353.55819 865.70793,353.20575 865.70793,354.19876 C 865.70793,355.13106 864.06626,357.32126 862.05977,359.06588 C 860.05328,360.81051 858.4116,363.14875 858.4116,364.26199 C 858.4116,365.59236 857.45342,365.98196 855.61588,365.39875 C 854.07823,364.91071 852.43591,365.13315 851.96626,365.89304 C 851.49662,366.65294 849.79969,366.9314 848.19528,366.51185 C 846.16706,365.98145 845.27821,366.46785 845.27821,368.10811 C 845.27821,369.40561 844.78571,370.38944 844.18376,370.29439 C 839.84538,369.60939 837.82492,370.88715 837.03991,374.81227 C 836.14589,379.28232 834.14636,381.57271 828.70583,384.35861 C 826.98559,385.23948 825.67316,387.094 825.78933,388.47977 C 825.9354,390.22239 825.48332,390.57006 824.32321,389.60726 C 823.18372,388.66156 820.91007,389.80596 817.23249,393.17623 C 809.04595,400.67862 806.86399,404.69808 807.92057,410.3301 C 808.42135,412.99948 808.33638,415.67821 807.73173,416.28284 C 807.1271,416.88749 806.51425,420.6511 806.36986,424.64644 C 806.22545,428.64179 805.40528,432.7566 804.54723,433.79046 C 803.6892,434.82434 803.05144,439.95442 803.12999,445.19064 C 803.20855,450.42687 802.54564,456.06978 801.65689,457.73044 C 800.76813,459.39109 800.04096,462.39591 800.04096,464.4078 C 800.04096,466.41969 799.38429,468.47163 798.58169,468.96766 C 797.7791,469.46369 797.12243,471.14413 797.12243,472.70195 C 797.12243,474.86359 798.13876,475.53436 801.4141,475.53436 C 803.77452,475.53436 806.10859,474.88259 806.60092,474.08601 C 807.09536,473.28596 809.07288,474.42907 811.01873,476.63972 C 813.84274,479.84806 814.55053,480.13532 814.58751,478.08807 C 814.64353,474.98544 817.55215,474.62751 817.55215,477.72326 C 817.55215,478.92715 818.53716,479.91216 819.74105,479.91216 C 820.94495,479.91216 821.92995,478.92715 821.92995,477.72326 C 821.92995,476.51936 822.91496,475.53436 824.11885,475.53436 C 826.61176,475.53436 827.08792,471.81098 824.77762,470.38313 C 821.94219,468.63074 826.56889,465.00987 830.60254,465.82452 C 839.44703,467.61079 843.96036,469.03915 843.91558,470.03778 C 843.88918,470.62636 846.21183,473.45216 849.07701,476.31734 C 852.35416,479.59449 853.9642,482.36652 853.41767,483.79074 C 852.26531,486.79376 855.29992,496.6657 858.39743,499.9905 C 859.75398,501.44659 862.6204,506.13506 864.76726,510.40936 C 868.6585,518.15663 868.6686,518.26302 868.01614,544.64854 C 867.3247,572.61091 866.9316,577.44102 865.10696,580.39332 C 864.48378,581.40166 864.35868,583.7597 864.82896,585.63343 C 865.93358,590.03463 860.73414,601.84201 855.69769,606.3696 C 852.48798,609.25501 850.81488,609.69331 845.67383,608.99555 L 839.50275,608.15799 L 838.55581,614.07984 C 837.80367,618.78347 836.98946,620.0017 834.59793,620.0017 C 831.72895,620.0017 831.71264,619.90982 834.25189,618.05308 z M 904.50718,545.46548 C 902.30614,542.99519 900.86365,540.04018 901.30164,538.89878 C 901.73964,537.75739 901.51002,536.82353 900.79141,536.82353 C 899.30247,536.82353 894.89326,528.56324 894.89326,525.77385 C 894.89326,524.75873 892.67218,522.55547 889.95752,520.87772 C 887.24286,519.19996 884.16247,515.69889 883.11219,513.09756 C 882.06191,510.49621 878.97265,505.41283 876.24713,501.80115 C 873.52163,498.18946 870.39717,493.10027 869.3039,490.49183 C 867.97819,487.32885 866.31925,485.74922 864.32313,485.74922 C 861.32901,485.74922 855.49307,481.04503 855.49307,478.63156 C 855.49307,477.92725 854.50807,476.5335 853.30417,475.53436 C 852.10028,474.53521 851.11527,472.70067 851.11527,471.45761 C 851.11527,470.21453 849.99221,467.95651 848.61958,466.43976 C 846.67906,464.29551 846.53559,463.42761 847.97457,462.53826 C 850.57682,460.92999 848.47053,453.44372 845.17319,452.58146 C 843.6602,452.18581 842.89175,451.03823 843.34642,449.8534 C 844.56347,446.68178 846.66569,447.42949 848.25043,451.59768 C 849.04282,453.68183 850.99658,455.72842 852.59211,456.14567 C 854.18764,456.56291 855.49307,457.83331 855.49307,458.9688 C 855.49307,460.10427 856.64224,461.44295 858.04679,461.94366 C 862.51862,463.5378 864.37981,465.59185 862.93393,467.33719 C 861.19978,469.4305 865.065,474.19262 870.45055,476.59799 C 872.65769,477.58376 874.46353,479.06107 874.46353,479.88087 C 874.46353,480.70067 875.18344,481.37142 876.06335,481.37142 C 876.94325,481.37142 881.7041,484.9162 886.64303,489.24869 C 891.58195,493.58119 897.92123,498.12431 900.73032,499.34452 L 905.83775,501.56307 L 898.86045,501.68211 C 890.36753,501.827 889.47703,503.46118 892.70687,512.9746 C 895.95274,522.53527 900.45191,529.51735 903.40305,529.57361 C 904.74213,529.59914 907.11664,530.58723 908.67973,531.76935 C 910.24282,532.95149 912.59564,533.57785 913.90819,533.16124 C 917.07142,532.15728 920.81934,539.60815 918.02105,541.3376 C 917.01504,541.95933 915.59799,542.10094 914.87204,541.65227 C 914.14608,541.20361 914.44307,540.27198 915.53201,539.582 C 916.98884,538.65891 917.02999,538.32159 915.6878,538.30514 C 912.53902,538.26657 908.24074,543.56953 909.63581,545.77171 C 913.24351,551.46655 909.66371,551.2528 904.50718,545.46548 z M 897.927,540.5933 C 897.86364,539.055 898.20853,538.19311 898.69343,538.67801 C 899.17833,539.16291 899.23017,540.42153 898.80863,541.47494 C 898.3428,542.63904 897.99701,542.29327 897.927,540.5933 z M 938.67124,534.35298 C 938.67124,530.20313 939.3899,528.10442 941.02588,527.47663 C 943.03446,526.70586 943.23223,527.37995 942.37159,532.06311 C 940.89392,540.10379 938.67124,541.47923 938.67124,534.35298 z M 944.06266,524.21734 C 942.00871,522.16338 942.96418,509.44229 945.23794,508.56976 C 946.44183,508.10779 947.42684,506.7242 947.42684,505.4951 C 947.42684,504.26602 948.0835,503.26041 948.8861,503.26041 C 950.87616,503.26041 950.72359,504.91731 948.17097,511.0266 C 946.97505,513.88883 946.37333,517.2125 946.83382,518.4125 C 947.81283,520.96376 945.54971,525.70439 944.06266,524.21734 z M 951.90721,494.95576 C 951.85079,492.39469 952.4613,489.89342 953.2639,489.39738 C 955.01408,488.3157 955.01408,492.6208 953.2639,496.69372 C 952.20673,499.15386 951.99365,498.88091 951.90721,494.95576 z M 956.41284,472.61582 C 956.41284,470.60933 956.74406,469.7885 957.14887,470.79174 C 957.55369,471.79499 957.55369,473.43666 957.14887,474.43991 C 956.74406,475.44315 956.41284,474.62232 956.41284,472.61582 z M 810.98546,465.31949 C 810.48942,464.5169 810.779,463.86023 811.62896,463.86023 C 812.47893,463.86023 813.17435,464.5169 813.17435,465.31949 C 813.17435,466.12209 812.88478,466.77876 812.53085,466.77876 C 812.17692,466.77876 811.48149,466.12209 810.98546,465.31949 z M 951.0297,446.27575 C 949.68943,444.10714 950.75536,443.33942 953.09713,444.7867 C 954.35171,445.56208 954.50096,446.31412 953.52053,446.92006 C 952.68771,447.43477 951.56683,447.14483 951.0297,446.27575 z M 948.8861,436.13417 C 948.8861,435.33158 949.54277,434.67491 950.34537,434.67491 C 951.14796,434.67491 951.80463,435.33158 951.80463,436.13417 C 951.80463,436.93677 951.14796,437.59344 950.34537,437.59344 C 949.54277,437.59344 948.8861,436.93677 948.8861,436.13417 z M 947.30573,428.10821 C 947.18225,427.30561 947.16784,426.12984 947.27373,425.49538 C 947.37961,424.86092 946.83144,423.15568 946.05558,421.70596 C 945.09989,419.92024 945.18766,418.52733 946.32772,417.38727 C 948.42687,415.28812 950.84846,415.16913 949.57623,417.22763 C 949.05847,418.06539 949.29381,419.54483 950.09922,420.51528 C 951.09698,421.71751 950.921,423.44079 949.54692,425.9236 C 948.43776,427.92773 947.42923,428.91081 947.30573,428.10821 z M 852.57454,369.82369 C 852.57454,369.46976 853.23121,368.77434 854.03381,368.2783 C 854.8364,367.78227 855.49307,368.07184 855.49307,368.92181 C 855.49307,369.77177 854.8364,370.4672 854.03381,370.4672 C 853.23121,370.4672 852.57454,370.17762 852.57454,369.82369 z M 403.12058,303.34096 C 403.12058,300.93317 403.77725,298.96316 404.57985,298.96316 C 405.38245,298.96316 406.03912,300.93317 406.03912,303.34096 C 406.03912,305.74875 405.38245,307.71876 404.57985,307.71876 C 403.77725,307.71876 403.12058,305.74875 403.12058,303.34096 z M 605.33815,297.68061 C 604.88601,296.94903 605.4973,295.97392 606.69658,295.51371 C 607.89586,295.0535 608.8771,295.27427 608.8771,296.00431 C 608.8771,297.98242 606.28384,299.21077 605.33815,297.68061 z M 461.70025,291.80247 C 460.23226,290.89042 460.16305,290.2988 461.43252,289.51421 C 463.43493,288.27667 464.93819,289.37221 464.19695,291.52886 C 463.89338,292.41209 462.86317,292.525 461.70025,291.80247 z M 396.87552,287.41223 C 393.71725,283.65332 393.18802,282.14049 394.48476,280.57801 C 396.65984,277.9572 394.94198,271.23711 392.09694,271.23711 C 390.37153,271.23711 390.21283,270.62363 391.37602,268.4502 C 392.31313,266.69918 393.88441,265.92921 395.60329,266.3787 C 397.26643,266.81363 399.93209,265.61774 402.40217,263.32855 C 407.07232,259.0004 408.75411,258.73278 412.69172,261.69119 C 415.41417,263.73663 415.27634,264.04201 409.14807,269.5426 C 403.37733,274.72226 402.68441,276.07178 401.85174,283.75278 L 400.93168,292.23977 L 396.87552,287.41223 z M 360.31545,286.31619 C 358.6218,284.62255 359.2511,283.06288 362.28279,281.44038 C 364.62647,280.18608 365.40975,280.35357 366.14358,282.26595 C 367.36169,285.44026 362.68769,288.68844 360.31545,286.31619 z M 700.45232,267.95376 C 698.76531,263.36631 702.83288,261.10914 708.71748,263.36727 C 712.02356,264.63593 711.57414,266.14097 707.3089,268.08434 C 702.57773,270.24 701.28402,270.21536 700.45232,267.95376 z M 416.25398,261.02225 C 415.19499,259.04349 415.17846,258.10371 416.20264,258.10371 C 417.03347,258.10371 417.54908,257.28288 417.34843,256.27963 C 417.14458,255.26037 418.11037,254.64474 419.53733,254.88433 C 420.94187,255.12017 422.09104,254.70733 422.09104,253.96692 C 422.09104,253.22651 424.06105,251.80472 426.46884,250.80738 C 428.87663,249.81004 430.84664,248.56026 430.84664,248.03009 C 430.84664,247.49992 432.54131,246.92588 434.61258,246.75446 C 436.68385,246.58304 439.44014,245.84867 440.73768,245.12254 C 442.14571,244.33456 444.50083,244.33611 446.57941,245.12638 C 448.49484,245.85463 450.69234,246.0609 451.46274,245.58476 C 452.23315,245.10863 453.83201,245.52287 455.01575,246.50529 C 456.44243,247.68933 459.89263,248.01032 465.24967,247.45743 C 471.58309,246.80376 473.51018,247.08949 474.15824,248.77829 C 474.61305,249.96352 474.56621,251.35221 474.05415,251.86428 C 472.647,253.27143 458.83409,254.78934 457.11343,253.72592 C 456.28566,253.21433 452.17117,253.37136 447.97013,254.07488 C 443.76908,254.7784 438.46494,255.54027 436.18315,255.76792 C 433.90135,255.99557 431.60301,256.77843 431.07571,257.50759 C 430.54842,258.23676 428.47533,259.01003 426.46884,259.22598 C 424.46235,259.44193 422.09161,260.5911 421.20054,261.7797 C 419.0489,264.64975 418.11917,264.50738 416.25398,261.02225 z M 694.9738,263.29727 C 694.9738,262.94333 695.63047,262.24791 696.43307,261.75188 C 697.23566,261.25585 697.89233,261.54543 697.89233,262.39539 C 697.89233,263.24535 697.23566,263.94078 696.43307,263.94078 C 695.63047,263.94078 694.9738,263.6512 694.9738,263.29727 z M 130.69497,260.72002 C 129.89013,259.68235 128.82195,257.68417 128.32125,256.27963 C 127.78723,254.7816 125.91944,253.72592 123.80305,253.72592 C 121.81873,253.72592 119.77309,253.04292 119.25718,252.20816 C 118.64893,251.22399 119.64469,251.02309 122.08959,251.63672 C 125.20329,252.41821 125.86003,252.07433 125.86003,249.66244 C 125.86003,244.39578 133.02647,244.44553 133.13401,249.71293 C 133.1463,250.31488 134.181,250.80738 135.43334,250.80738 C 137.17148,250.80738 137.60315,252.09952 137.25743,256.26749 C 136.78077,262.01396 133.45093,264.2732 130.69497,260.72002 z M 682.23126,258.94116 C 678.66735,257.29221 675.64404,250.52312 676.95068,247.1181 C 677.93163,244.56179 679.54758,244.42152 683.52059,246.54781 C 686.98937,248.40425 688.97056,247.13897 686.48573,244.65414 C 683.70646,241.87486 684.40728,241.33884 691.22004,241.03317 C 697.74343,240.74048 702.01548,243.29991 700.12074,246.36566 C 698.64025,248.76115 693.82267,248.14654 692.04308,245.33514 C 690.95053,243.60912 690.60966,243.49088 690.99136,244.97032 C 691.30197,246.17421 693.00611,247.88858 694.77832,248.78002 L 698.00054,250.40082 L 693.93345,253.11752 C 691.69655,254.6117 689.2933,255.66133 688.5929,255.45002 C 687.89248,255.23872 687.68685,256.02334 688.13594,257.19364 C 689.20567,259.98133 686.3232,260.83441 682.23126,258.94116 z M 564.98973,249.93335 C 566.65509,246.82615 568.01765,243.45334 568.01765,242.43821 C 568.01765,241.42308 568.67432,240.59252 569.47692,240.59252 C 570.27951,240.59252 570.93618,241.24919 570.93618,242.05179 C 570.93618,242.85438 571.63975,243.51105 572.49969,243.51105 C 575.04047,243.51105 578.57738,247.80385 577.77004,249.90776 C 577.35977,250.97691 575.16181,252.25756 572.88569,252.75366 C 570.60957,253.24976 567.22056,254.08926 565.35455,254.61922 L 561.96181,255.58278 L 564.98973,249.93335 z M 553.06017,244.13566 C 548.0709,241.42893 547.6981,235.86589 552.29043,232.6493 C 556.43209,229.74837 558.35463,229.7533 557.23846,232.66198 C 556.57461,234.39194 557.03813,234.73167 559.14844,234.06189 C 562.48268,233.00364 564.31749,235.39366 562.81527,238.83832 C 562.21949,240.20443 561.87424,242.47133 562.04804,243.87587 C 562.43905,247.03579 558.60995,247.14646 553.06017,244.13566 z M 703.22648,239.47773 C 702.3888,238.09352 705.28452,235.56367 708.1072,235.2137 C 709.31109,235.06443 711.93206,234.4539 713.93158,233.85696 C 717.45759,232.80431 717.49935,232.87362 715.31825,236.15854 C 713.12582,239.46052 704.62775,241.79324 703.22648,239.47773 z M 544.18298,233.78261 C 542.41046,232.0101 543.1747,230.45566 545.39903,231.30922 C 546.60292,231.77119 547.58793,232.73559 547.58793,233.45232 C 547.58793,234.98222 545.57758,235.17723 544.18298,233.78261 z M 547.06131,228.1916 C 545.90795,225.18598 548.47592,220.1628 551.16583,220.1628 C 552.27461,220.1628 553.47494,219.34196 553.83323,218.33871 C 554.70312,215.90305 555.91545,217.17357 556.96907,221.62505 C 558.05448,226.21092 556.62112,228.42686 551.78408,229.64088 C 548.99568,230.34073 547.7379,229.95475 547.06131,228.1916 z M 804.41876,221.04855 C 804.41876,220.73313 805.40376,220.09706 806.60766,219.63509 C 807.81155,219.17311 808.79656,219.43119 808.79656,220.20859 C 808.79656,220.986 807.81155,221.62206 806.60766,221.62206 C 805.40376,221.62206 804.41876,221.36398 804.41876,221.04855 z M 478.19421,201.06519 C 477.65495,200.19266 477.78586,198.90666 478.4851,198.20742 C 480.21094,196.48157 484.00932,198.99384 482.75142,201.02919 C 481.47668,203.09175 479.45656,203.10771 478.19421,201.06519 z M 486.29875,201.19234 C 486.29875,200.38974 487.65085,199.73307 489.30341,199.73307 C 490.95597,199.73307 491.90222,200.38974 491.40618,201.19234 C 490.91015,201.99493 489.55805,202.6516 488.40152,202.6516 C 487.245,202.6516 486.29875,201.99493 486.29875,201.19234 z M 473.90532,190.99419 C 473.39408,190.16699 473.97983,189.92235 475.27846,190.42068 C 477.80652,191.39079 478.26907,192.43674 476.17001,192.43674 C 475.41479,192.43674 474.39566,191.78759 473.90532,190.99419 z M 456.3838,185.14041 C 451.8865,183.99604 452.722,183.49856 459.56986,183.24336 C 461.7235,183.1631 463.74823,183.88544 464.06927,184.84856 C 464.70885,186.7673 463.02818,186.83112 456.3838,185.14041 z M 453.70848,179.78977 C 453.17341,179.2547 452.73563,178.33118 452.73563,177.73748 C 452.73563,176.33453 458.37739,177.80677 459.41119,179.47949 C 460.32866,180.96398 455.1637,181.245 453.70848,179.78977 z M 811.96735,174.16684 C 809.53576,168.83006 809.83334,166.49874 813.17435,164.71069 C 816.39611,162.98645 816.50574,163.20363 816.12104,170.54775 C 815.76629,177.32005 814.07535,178.79336 811.96735,174.16684 z"
       />
  </g>
</svg>
