<svg width="12" height="8" viewBox="0 0 12 8" fill="none" xmlns="http://www.w3.org/2000/svg">
<path d="M5.14724 7.25715C5.08654 7.19624 5.03532 7.13017 4.99076 7.06064L0.340179 2.40985C-0.113322 1.95613 -0.113537 1.22003 0.340394 0.766097C0.79411 0.312166 1.53 0.312166 1.98414 0.766097L5.98945 4.7714L10.0156 0.745433C10.4694 0.291502 11.205 0.291502 11.6594 0.745433C11.8867 0.972506 11.9999 1.27018 11.9999 1.5672C11.9999 1.86422 11.8867 2.16211 11.6594 2.38897L6.98728 7.06064C6.94273 7.13016 6.8915 7.19667 6.83081 7.25715C6.59878 7.48918 6.29315 7.6011 5.98902 7.5955C5.6849 7.6011 5.37948 7.48918 5.14724 7.25715Z" fill="#9B9B9B"/>
</svg>
