<svg width="16" height="16" viewBox="0 0 16 16" fill="none" xmlns="http://www.w3.org/2000/svg">
<path d="M12.6685 11.332C11.5684 11.332 10.6735 12.227 10.6735 13.327C10.6735 14.4271 11.5684 15.3221 12.6685 15.3221C13.7685 15.3221 14.6635 14.4271 14.6635 13.327C14.6635 12.227 13.7685 11.332 12.6685 11.332ZM12.6685 14.125C12.2284 14.125 11.8705 13.7671 11.8705 13.327C11.8705 12.8869 12.2284 12.529 12.6685 12.529C13.1086 12.529 13.4665 12.8869 13.4665 13.327C13.4665 13.7671 13.1086 14.125 12.6685 14.125Z" fill="black" fill-opacity="0.5"/>
<path d="M15.8728 3.62154C15.7595 3.47651 15.5857 3.39191 15.4016 3.39191H3.6944L3.15574 1.13815C3.0913 0.868837 2.85049 0.678711 2.57358 0.678711H0.598504C0.267939 0.67868 0 0.946619 0 1.27718C0 1.60775 0.267939 1.87569 0.598504 1.87569H2.10117L4.04631 10.0146C4.11074 10.2841 4.35156 10.474 4.62846 10.474H13.9452C14.2204 10.474 14.4601 10.2865 14.5262 10.0195L15.9826 4.13423C16.0266 3.95551 15.9861 3.76657 15.8728 3.62154ZM13.477 9.27704H5.10087L3.98046 4.58892H14.6369L13.477 9.27704Z" fill="black" fill-opacity="0.5"/>
<path d="M5.42641 11.332C4.32634 11.332 3.4314 12.227 3.4314 13.327C3.4314 14.4271 4.32637 15.3221 5.42641 15.3221C6.52645 15.3221 7.42142 14.4271 7.42142 13.327C7.42142 12.227 6.52645 11.332 5.42641 11.332ZM5.42641 14.125C4.98631 14.125 4.6284 13.7671 4.6284 13.327C4.6284 12.8869 4.98631 12.529 5.42641 12.529C5.8665 12.529 6.22441 12.8869 6.22441 13.327C6.22441 13.7671 5.8665 14.125 5.42641 14.125Z" fill="black" fill-opacity="0.5"/>
</svg>
