<svg width="20" height="20" viewBox="0 0 20 20" fill="none" xmlns="http://www.w3.org/2000/svg">
<path d="M16.5182 6.14761L17.3024 5.36346C17.6071 5.05875 17.6071 4.56467 17.3024 4.2601C16.9977 3.95538 16.5038 3.95538 16.199 4.2601L15.4149 5.04425C14.0993 3.94806 12.5006 3.28583 10.7953 3.1308V1.56052H11.5495C11.9804 1.56052 12.3297 1.21109 12.3297 0.780182C12.3297 0.349274 11.9804 0 11.5495 0H8.48053C8.04962 0 7.70035 0.349274 7.70035 0.780182C7.70035 1.21109 8.04962 1.56052 8.48053 1.56052H9.23477V3.1308C4.96597 3.51898 1.5625 7.1051 1.5625 11.5474C1.5625 16.219 5.34286 20 10.0151 20C14.6866 20 18.4676 16.2196 18.4676 11.5474C18.4676 9.55185 17.7803 7.66205 16.5182 6.14761ZM10.015 18.4395C6.21475 18.4395 3.12286 15.3477 3.12286 11.5474C3.12286 7.74719 6.21475 4.65546 10.015 4.65546C13.8153 4.65546 16.907 7.74719 16.907 11.5474C16.907 15.3477 13.8153 18.4395 10.015 18.4395ZM13.6308 7.93167C13.9355 8.23639 13.9355 8.73047 13.6308 9.03503L10.5667 12.0992C10.262 12.4039 9.76791 12.4039 9.46335 12.0992C9.15863 11.7944 9.15863 11.3004 9.46335 10.9958L12.5273 7.93167C12.832 7.62695 13.3261 7.62695 13.6308 7.93167Z" fill="black" fill-opacity="0.25"/>
</svg>
