<svg width="20" height="20" viewBox="0 0 20 20" fill="#b7b7b7" xmlns="http://www.w3.org/2000/svg">
<path d="M19.9999 14.124C19.9999 12.9537 19.6495 11.8236 18.9864 10.856C18.5094 10.16 17.8952 9.58206 17.1834 9.15257C18.0214 8.35898 18.5458 7.23731 18.5458 5.99479C18.5458 3.59554 16.5938 1.64355 14.1946 1.64355C12.7719 1.64355 11.4392 2.34716 10.6297 3.50216C10.424 3.4722 10.2139 3.45604 9.99997 3.45604C9.78606 3.45604 9.57595 3.47226 9.37025 3.50216C8.56071 2.34716 7.22803 1.64355 5.80542 1.64355C3.40617 1.64355 1.45419 3.59554 1.45419 5.99479C1.45419 7.23731 1.97851 8.35898 2.81656 9.15257C2.10474 9.58201 1.49054 10.16 1.01363 10.8559C0.350513 11.8236 0 12.9537 0 14.124V16.5442H4.19461V18.3566H15.8054V16.5442H20V14.124H19.9999ZM14.1946 2.71748C16.0017 2.71748 17.4719 4.18767 17.4719 5.99484C17.4719 7.80201 16.0017 9.2722 14.1946 9.2722C14.1622 9.2722 14.1298 9.27172 14.0974 9.27075C14.0999 9.26388 14.1019 9.25684 14.1043 9.24997C14.1603 9.09136 14.2069 8.92845 14.2444 8.76205C14.247 8.75024 14.25 8.73854 14.2525 8.72667C14.2622 8.68178 14.2708 8.63646 14.2791 8.59104C14.283 8.56956 14.287 8.54814 14.2906 8.52661C14.2974 8.48607 14.3035 8.44537 14.3092 8.40451C14.3131 8.3761 14.3166 8.3477 14.32 8.31924C14.3243 8.28316 14.3284 8.24702 14.3318 8.21067C14.3352 8.17357 14.3378 8.13642 14.3403 8.09921C14.3422 8.06989 14.3446 8.04068 14.3459 8.0112C14.3489 7.948 14.3506 7.8847 14.3508 7.82134C14.3508 7.81667 14.3512 7.81211 14.3512 7.80738C14.3512 7.80486 14.3509 7.80233 14.3509 7.79981C14.3508 7.73511 14.349 7.67078 14.3461 7.60667C14.3452 7.58804 14.3441 7.56946 14.343 7.55088C14.3398 7.49639 14.3357 7.44215 14.3306 7.38819C14.3294 7.37595 14.3284 7.36371 14.3272 7.35152C14.1649 5.78318 13.1741 4.44078 11.7448 3.81987C12.3607 3.12792 13.2516 2.71748 14.1946 2.71748ZM8.86602 4.73218C8.87649 4.72837 8.88706 4.72477 8.89753 4.72101C8.93013 4.70936 8.96299 4.6983 8.99601 4.68761C9.02103 4.67961 9.04621 4.67188 9.07156 4.66447C9.08997 4.65905 9.10844 4.65384 9.12697 4.64868C9.16004 4.63961 9.19328 4.63075 9.22684 4.62264C9.4749 4.5624 9.7336 4.5297 9.99987 4.5297C10.2663 4.52991 10.5252 4.56267 10.7733 4.62291C10.8066 4.63097 10.8396 4.63977 10.8726 4.64879C10.8913 4.654 10.9101 4.65926 10.9288 4.66479C10.9538 4.67215 10.9787 4.67977 11.0035 4.68767C11.0369 4.69846 11.0701 4.70963 11.1031 4.72144C11.1133 4.72504 11.1234 4.72847 11.1335 4.73218C12.2296 5.13751 13.0513 6.11297 13.2373 7.29675C13.2388 7.3062 13.2402 7.31571 13.2416 7.32521C13.2475 7.36532 13.2525 7.40575 13.257 7.44629C13.2586 7.46122 13.2603 7.47609 13.2618 7.49107C13.2653 7.52806 13.2679 7.56533 13.2703 7.6027C13.2713 7.6187 13.2726 7.63465 13.2734 7.6507C13.2756 7.69843 13.2768 7.74644 13.277 7.79471C13.277 7.7989 13.2773 7.80298 13.2773 7.80716C13.2773 7.8091 13.2772 7.81108 13.2772 7.81302C13.2771 7.85973 13.2757 7.90612 13.2736 7.95235C13.273 7.9669 13.2723 7.98145 13.2715 7.99595C13.269 8.04063 13.2656 8.08508 13.2613 8.12922C13.2597 8.14629 13.2574 8.16332 13.2555 8.18034C13.2522 8.2089 13.2486 8.23741 13.2446 8.26576C13.2415 8.28783 13.2383 8.30995 13.2348 8.33191C13.2294 8.36537 13.2234 8.3986 13.2169 8.43173C13.2112 8.46121 13.2049 8.49058 13.1983 8.5199C13.1944 8.53756 13.1903 8.55523 13.1861 8.57278C13.1756 8.61633 13.1641 8.65961 13.1519 8.70272C13.147 8.71985 13.1425 8.73709 13.1373 8.75405C13.1298 8.77875 13.1218 8.80324 13.1138 8.82772C13.1073 8.84732 13.1007 8.86681 13.0939 8.88625C13.0862 8.90832 13.0786 8.93044 13.0704 8.95234C13.0565 8.98955 13.0419 9.02644 13.0267 9.06301C13.0199 9.07933 13.0127 9.09549 13.0057 9.11176C12.9924 9.14221 12.9788 9.17249 12.9646 9.20245C12.963 9.20599 12.9613 9.20954 12.9596 9.21308C12.9545 9.22371 12.9495 9.2344 12.9443 9.24503C12.9284 9.27746 12.9118 9.30952 12.8949 9.3413C12.8883 9.35365 12.8819 9.36616 12.8751 9.37846C12.8747 9.37926 12.8743 9.38002 12.8738 9.38077C12.8552 9.41459 12.8359 9.44788 12.8162 9.48096C12.8083 9.49406 12.8006 9.50722 12.7926 9.52016C12.7711 9.555 12.749 9.58947 12.7263 9.62341C12.7122 9.64451 12.6974 9.66518 12.6828 9.68596C12.6704 9.70357 12.6581 9.72124 12.6454 9.73858C12.6289 9.76103 12.6121 9.7832 12.595 9.80527C12.5834 9.82025 12.5717 9.83512 12.5599 9.84994C12.5418 9.87249 12.5236 9.89494 12.5051 9.91701C12.4935 9.9307 12.4816 9.94412 12.4699 9.9576C12.4506 9.97977 12.4313 10.002 12.4114 10.0236C12.3996 10.0365 12.3874 10.0488 12.3753 10.0615C12.343 10.0956 12.3099 10.1289 12.2762 10.1616C12.2562 10.181 12.2363 10.2005 12.2158 10.2193C12.2016 10.2323 12.187 10.245 12.1726 10.2579C12.1491 10.2787 12.1254 10.2994 12.1013 10.3196C12.089 10.3299 12.0767 10.34 12.0643 10.3501C12.0351 10.3738 12.0056 10.3971 11.9756 10.4198C11.9674 10.426 11.9594 10.4323 11.9511 10.4384C11.4056 10.844 10.7304 11.0844 9.99992 11.0844C9.26942 11.0844 8.59406 10.8439 8.04853 10.4383C8.04047 10.4323 8.03258 10.4261 8.02458 10.42C7.99446 10.3972 7.96477 10.3738 7.9355 10.3499C7.92321 10.3399 7.91091 10.3299 7.89878 10.3197C7.87456 10.2994 7.85083 10.2786 7.8272 10.2576C7.81287 10.2449 7.79837 10.2323 7.78425 10.2193C7.76368 10.2004 7.74371 10.1809 7.72363 10.1615C7.68975 10.1287 7.65662 10.0953 7.62419 10.0611C7.61232 10.0486 7.60019 10.0364 7.58853 10.0237C7.56861 10.002 7.54934 9.97972 7.53001 9.95755C7.51825 9.94407 7.50644 9.9307 7.49489 9.91701C7.47626 9.89494 7.45811 9.87249 7.44007 9.85C7.42826 9.83518 7.4165 9.8203 7.4049 9.80527C7.38788 9.78326 7.37108 9.76108 7.35459 9.73864C7.34187 9.72124 7.32946 9.70352 7.31706 9.68585C7.30245 9.66513 7.28774 9.64451 7.27367 9.62346C7.25085 9.58937 7.22868 9.55479 7.20715 9.51983C7.19925 9.507 7.19163 9.49406 7.1839 9.48112C7.16387 9.44756 7.14427 9.41384 7.12543 9.37953C7.1185 9.36691 7.11195 9.35408 7.10513 9.34141C7.08816 9.30952 7.07157 9.27735 7.05562 9.24487C7.04993 9.23332 7.0444 9.22167 7.03887 9.21007C7.03801 9.2083 7.03721 9.20653 7.0364 9.20476C7.02153 9.1734 7.0073 9.14172 6.99339 9.10978C6.98679 9.09458 6.98008 9.07944 6.97374 9.06419C6.95817 9.02682 6.9433 8.98912 6.92907 8.95111C6.92139 8.9306 6.9143 8.90987 6.90705 8.8892C6.89959 8.86799 6.8924 8.84662 6.88536 8.8252C6.87779 8.802 6.87017 8.77881 6.86308 8.7555C6.8525 8.72066 6.84251 8.68559 6.83312 8.65032C6.82651 8.62556 6.82055 8.6006 6.81449 8.57568C6.80976 8.55608 6.8052 8.53649 6.80085 8.51678C6.79548 8.49262 6.79006 8.46851 6.78522 8.44424C6.77776 8.40644 6.77094 8.36843 6.76482 8.3302C6.76149 8.30958 6.75859 8.28891 6.75564 8.26829C6.75129 8.23774 6.74737 8.20702 6.74388 8.1762C6.74216 8.16101 6.74017 8.14581 6.73862 8.13062C6.73416 8.08535 6.73078 8.03977 6.7282 7.99402C6.72745 7.98086 6.72686 7.96771 6.72627 7.95455C6.72407 7.90564 6.72251 7.85656 6.72251 7.80716C6.72251 7.75422 6.72401 7.70166 6.72654 7.64931C6.72723 7.63508 6.72841 7.62095 6.72922 7.60678C6.73158 7.56748 6.73443 7.52828 6.73819 7.4893C6.73948 7.47571 6.74103 7.46218 6.74248 7.44865C6.7471 7.40645 6.75231 7.36446 6.75854 7.32274C6.75972 7.31463 6.7609 7.30647 6.76219 7.29836C6.94759 6.11388 7.76954 5.13778 8.86602 4.73218ZM2.52806 5.99484C2.52806 4.18772 3.99825 2.71748 5.80542 2.71748C6.74844 2.71748 7.63928 3.12797 8.2552 3.81976C6.82539 4.44089 5.83436 5.78393 5.67258 7.35292C5.67145 7.36355 5.67065 7.37423 5.66963 7.38492C5.66426 7.44081 5.66002 7.49692 5.6568 7.55335C5.65583 7.57054 5.65476 7.58766 5.65395 7.6049C5.65089 7.67207 5.6488 7.73946 5.6488 7.80733C5.6488 7.87584 5.65078 7.94419 5.654 8.01249C5.65529 8.03998 5.65755 8.0672 5.65932 8.09453C5.66195 8.13384 5.66463 8.17314 5.66829 8.21234C5.67151 8.24718 5.67548 8.28182 5.67956 8.31645C5.6831 8.34663 5.68686 8.37669 5.69105 8.40676C5.69653 8.44623 5.70243 8.48553 5.70893 8.52467C5.71285 8.54792 5.71715 8.57112 5.72139 8.59431C5.72944 8.63813 5.73766 8.68184 5.747 8.72517C5.75011 8.73945 5.75366 8.75362 5.75688 8.76785C5.79334 8.9291 5.8386 9.08696 5.89251 9.24089C5.89595 9.25083 5.89895 9.26087 5.90244 9.27075C5.87007 9.27172 5.83764 9.2722 5.80531 9.2722C3.99825 9.27214 2.52806 7.80196 2.52806 5.99484ZM5.09489 12.8408C5.08308 12.8595 5.0718 12.8784 5.0602 12.8972C5.03567 12.9368 5.01134 12.9765 4.98782 13.0166C4.97467 13.039 4.962 13.0616 4.94922 13.0841C4.92806 13.1213 4.90718 13.1587 4.88688 13.1963C4.8741 13.22 4.86154 13.2438 4.84908 13.2675C4.82954 13.305 4.81047 13.3426 4.79179 13.3804C4.78003 13.4041 4.76833 13.4278 4.75694 13.4516C4.73793 13.4914 4.71962 13.5315 4.70153 13.5717C4.6917 13.5935 4.68161 13.6152 4.67211 13.6372C4.65117 13.6853 4.63119 13.7338 4.61159 13.7824C4.60585 13.7966 4.59973 13.8107 4.59414 13.8249C4.56928 13.8881 4.5455 13.9518 4.52294 14.0157C4.51779 14.0304 4.51317 14.0452 4.50807 14.0599C4.4911 14.1091 4.47457 14.1586 4.45894 14.2083C4.4518 14.2311 4.4452 14.254 4.43832 14.2769C4.42571 14.319 4.4133 14.3611 4.40165 14.4035C4.39472 14.4288 4.38812 14.4541 4.38152 14.4794C4.37088 14.5201 4.36068 14.5609 4.35102 14.6019C4.34484 14.6278 4.33883 14.6538 4.33308 14.6797C4.32385 14.7213 4.3152 14.7629 4.30688 14.8046C4.30189 14.8297 4.29673 14.8548 4.29206 14.88C4.28363 14.9254 4.27606 14.971 4.2687 15.0167C4.26527 15.0382 4.26146 15.0596 4.25823 15.0811C4.24825 15.1482 4.23917 15.2154 4.23155 15.283C4.23144 15.2839 4.23139 15.2847 4.23133 15.2855C4.22441 15.3469 4.21845 15.4085 4.21345 15.4703H1.07387V14.124C1.07387 12.2845 2.13132 10.6332 3.78798 9.84828C4.3915 10.1655 5.07755 10.3461 5.80537 10.3461C6.01585 10.3461 6.22697 10.3305 6.43648 10.2997C6.46913 10.3462 6.50231 10.3923 6.53667 10.4375C6.54827 10.4527 6.5603 10.4675 6.57211 10.4826C6.60605 10.5259 6.64046 10.5688 6.67601 10.6109C6.69056 10.6281 6.70549 10.645 6.72031 10.662C6.7536 10.7002 6.78742 10.738 6.822 10.775C6.84015 10.7945 6.85862 10.8136 6.87709 10.8328C6.90872 10.8654 6.94077 10.8975 6.97337 10.9291C6.98561 10.941 6.99715 10.9536 7.0095 10.9653C6.96284 10.9935 6.91661 11.0224 6.87081 11.0519C6.86335 11.0567 6.85604 11.0617 6.84864 11.0665C6.80283 11.0963 6.75752 11.1267 6.71263 11.1577C6.69711 11.1684 6.68165 11.1792 6.66618 11.1901C6.62618 11.2183 6.58661 11.2469 6.54736 11.2761C6.53496 11.2853 6.52239 11.2944 6.5101 11.3037C6.46016 11.3414 6.41082 11.3799 6.36212 11.4192C6.35148 11.4278 6.34107 11.4366 6.33044 11.4453C6.29167 11.4771 6.25328 11.5093 6.21537 11.5421C6.20066 11.5548 6.18605 11.5676 6.17145 11.5804C6.13349 11.6138 6.09601 11.6478 6.05891 11.6822C6.04924 11.6912 6.03936 11.7 6.02975 11.709C5.98422 11.7519 5.93939 11.7955 5.8952 11.8399C5.8837 11.8515 5.87248 11.8632 5.8611 11.8748C5.82727 11.9094 5.79382 11.9443 5.7608 11.9797C5.7477 11.9937 5.7346 12.0078 5.7216 12.022C5.68445 12.0626 5.64783 12.1037 5.6118 12.1455C5.60616 12.152 5.60031 12.1583 5.59467 12.1649C5.5536 12.2129 5.51343 12.2618 5.47381 12.3111C5.46275 12.3248 5.45195 12.3388 5.44105 12.3527C5.41125 12.3906 5.38188 12.4288 5.353 12.4674C5.34183 12.4823 5.33061 12.4972 5.3196 12.5122C5.2818 12.5637 5.24448 12.6157 5.20824 12.6686C5.16931 12.7254 5.13162 12.7829 5.09489 12.8408ZM5.26848 17.2828V16.5443V15.9364C5.26848 15.8768 5.26961 15.8175 5.27181 15.7582C5.27251 15.7387 5.27407 15.7194 5.27503 15.7C5.27697 15.6605 5.27879 15.6209 5.28169 15.5815C5.28346 15.5576 5.28615 15.534 5.28829 15.5101C5.29141 15.4754 5.2942 15.4407 5.29807 15.4062C5.30091 15.381 5.30462 15.3559 5.30784 15.3307C5.31203 15.2979 5.31595 15.2651 5.32078 15.2324C5.3247 15.2064 5.32942 15.1807 5.33372 15.1548C5.33898 15.1233 5.34387 15.0917 5.34977 15.0604C5.35477 15.034 5.36057 15.0078 5.36599 14.9814C5.37222 14.951 5.37818 14.9205 5.385 14.8903C5.39101 14.8637 5.39788 14.8373 5.40433 14.8108C5.41158 14.7813 5.4185 14.7516 5.42629 14.7222C5.43338 14.6955 5.44121 14.6691 5.44873 14.6426C5.45689 14.6138 5.46484 14.5849 5.47354 14.5563C5.48165 14.5297 5.49056 14.5033 5.4991 14.4768C5.50822 14.4487 5.51708 14.4206 5.5267 14.3927C5.53582 14.3663 5.54565 14.3402 5.55521 14.314C5.5653 14.2864 5.57518 14.2587 5.58576 14.2314C5.59585 14.2053 5.60659 14.1796 5.61706 14.1537C5.62807 14.1267 5.63892 14.0995 5.65041 14.0727C5.66152 14.0469 5.67323 14.0214 5.68477 13.9958C5.69664 13.9694 5.7084 13.943 5.72074 13.9169C5.73283 13.8914 5.7455 13.8662 5.75801 13.8409C5.77079 13.8151 5.7834 13.7893 5.79661 13.7638C5.80966 13.7387 5.82325 13.7139 5.83672 13.689C5.85036 13.6638 5.86384 13.6386 5.87791 13.6137C5.89187 13.589 5.90636 13.5647 5.9207 13.5403C5.9352 13.5157 5.94959 13.491 5.96457 13.4666C5.97944 13.4424 5.9948 13.4186 6.0101 13.3946C6.02546 13.3706 6.04071 13.3466 6.05649 13.3229C6.07228 13.2992 6.08849 13.2758 6.10471 13.2524C6.12087 13.229 6.13698 13.2056 6.15352 13.1826C6.17016 13.1594 6.18729 13.1365 6.20442 13.1136C6.22139 13.0908 6.2383 13.0681 6.25564 13.0457C6.27315 13.0231 6.29108 13.0009 6.30901 12.9785C6.32679 12.9564 6.34461 12.9343 6.36276 12.9125C6.38107 12.8906 6.39976 12.869 6.41844 12.8474C6.43707 12.8259 6.45576 12.8043 6.47482 12.7831C6.49388 12.7618 6.51337 12.7409 6.53281 12.7199C6.55225 12.699 6.57168 12.6783 6.5915 12.6577C6.61136 12.6371 6.6316 12.6168 6.6519 12.5966C6.67214 12.5763 6.69249 12.5562 6.71311 12.5363C6.73368 12.5165 6.75456 12.4969 6.77556 12.4774C6.79661 12.4579 6.81776 12.4384 6.83918 12.4192C6.86055 12.4001 6.88214 12.3812 6.90389 12.3625C6.92568 12.3436 6.94765 12.3249 6.96982 12.3064C6.99189 12.2881 7.01417 12.27 7.03662 12.252C7.05922 12.2338 7.08199 12.2158 7.10497 12.1981C7.12768 12.1806 7.15061 12.1633 7.17364 12.1461C7.19705 12.1287 7.22062 12.1114 7.24446 12.0944C7.26777 12.0777 7.29129 12.0613 7.31496 12.0449C7.33923 12.0282 7.36361 12.0118 7.3882 11.9955C7.4121 11.9797 7.43621 11.9641 7.46042 11.9487C7.4855 11.9327 7.51073 11.917 7.53613 11.9015C7.56061 11.8866 7.58526 11.8718 7.61007 11.8573C7.63584 11.8422 7.66183 11.8274 7.68798 11.8127C7.71305 11.7986 7.73829 11.7847 7.76368 11.7711C7.79026 11.7568 7.81705 11.7428 7.84401 11.729C7.86957 11.7158 7.89523 11.7029 7.92111 11.6901C7.94146 11.6801 7.96203 11.6705 7.98259 11.6608C8.58606 11.978 9.27221 12.1585 9.99997 12.1585C10.7278 12.1585 11.4139 11.978 12.0174 11.6608C12.0378 11.6704 12.0582 11.68 12.0784 11.6899C12.1046 11.7028 12.1305 11.7159 12.1564 11.7292C12.183 11.7429 12.2095 11.7567 12.2358 11.7708C12.2615 11.7846 12.287 11.7987 12.3123 11.8129C12.3382 11.8274 12.3638 11.8421 12.3893 11.857C12.4145 11.8717 12.4394 11.8867 12.4642 11.9018C12.4893 11.9172 12.5142 11.9326 12.5389 11.9483C12.5635 11.964 12.5879 11.9798 12.6121 11.9958C12.6364 12.0119 12.6605 12.0282 12.6844 12.0447C12.7083 12.0612 12.7321 12.0777 12.7557 12.0946C12.7793 12.1115 12.8026 12.1285 12.8258 12.1458C12.8491 12.1631 12.8722 12.1806 12.8951 12.1983C12.9179 12.2159 12.9405 12.2337 12.9629 12.2517C12.9855 12.2698 13.0079 12.288 13.0301 12.3065C13.0522 12.3248 13.074 12.3435 13.0957 12.3622C13.1175 12.3811 13.1393 12.4 13.1608 12.4193C13.182 12.4384 13.203 12.4577 13.2239 12.4771C13.2451 12.4967 13.2662 12.5165 13.2869 12.5365C13.3074 12.5562 13.3275 12.5762 13.3476 12.5962C13.368 12.6166 13.3884 12.6371 13.4084 12.6578C13.428 12.6782 13.4474 12.6988 13.4667 12.7196C13.4864 12.7407 13.506 12.7618 13.5252 12.7832C13.5441 12.8043 13.5626 12.8256 13.5811 12.847C13.5999 12.8687 13.6188 12.8905 13.6372 12.9126C13.6553 12.9343 13.6729 12.9562 13.6906 12.9782C13.7087 13.0006 13.7267 13.023 13.7443 13.0458C13.7616 13.0681 13.7784 13.0907 13.7953 13.1133C13.8124 13.1363 13.8296 13.1593 13.8464 13.1826C13.8629 13.2055 13.8789 13.2288 13.895 13.2521C13.9112 13.2756 13.9276 13.2991 13.9434 13.323C13.9591 13.3465 13.9742 13.3704 13.9895 13.3942C14.0049 13.4183 14.0203 13.4424 14.0353 13.4668C14.0501 13.4909 14.0644 13.5153 14.0788 13.5397C14.0933 13.5643 14.1079 13.5889 14.1219 13.6137C14.1359 13.6385 14.1494 13.6636 14.163 13.6887C14.1765 13.7136 14.1901 13.7385 14.2032 13.7637C14.2164 13.7892 14.2289 13.815 14.2417 13.8407C14.2542 13.866 14.267 13.8913 14.279 13.9168C14.2914 13.9429 14.3031 13.9693 14.3149 13.9956C14.3265 14.0213 14.3383 14.0469 14.3494 14.0728C14.3608 14.0994 14.3715 14.1263 14.3825 14.1531C14.3931 14.1792 14.4039 14.2052 14.4141 14.2315C14.4246 14.2587 14.4344 14.2863 14.4445 14.3138C14.4541 14.34 14.4639 14.3662 14.473 14.3926C14.4827 14.4206 14.4916 14.4489 14.5007 14.4771C14.5093 14.5035 14.5181 14.5297 14.5262 14.5563C14.5349 14.5849 14.5428 14.6139 14.5511 14.6427C14.5586 14.6692 14.5664 14.6955 14.5735 14.7222C14.5813 14.7516 14.5882 14.7812 14.5955 14.8108C14.602 14.8373 14.6088 14.8637 14.6148 14.8903C14.6216 14.9205 14.6275 14.951 14.6338 14.9813C14.6392 15.0077 14.645 15.0339 14.65 15.0604C14.6559 15.0915 14.6607 15.1228 14.666 15.154C14.6703 15.1802 14.6751 15.2062 14.6791 15.2325C14.6839 15.2648 14.6878 15.2975 14.6919 15.33C14.6952 15.3554 14.699 15.3807 14.7018 15.4062C14.7057 15.4406 14.7085 15.4754 14.7116 15.5101C14.7137 15.5339 14.7164 15.5576 14.7182 15.5815C14.7212 15.6208 14.7229 15.6605 14.7249 15.7C14.7258 15.7194 14.7274 15.7387 14.7281 15.7582C14.7303 15.8174 14.7314 15.8768 14.7314 15.9364V16.5442V17.2828H5.26848ZM15.7868 15.4703C15.7762 15.3395 15.7611 15.2095 15.7419 15.0804C15.7388 15.0599 15.7352 15.0396 15.7319 15.0192C15.7244 14.9724 15.7166 14.9258 15.708 14.8793C15.7034 14.8548 15.6984 14.8304 15.6935 14.806C15.6851 14.7635 15.6763 14.7211 15.6669 14.6789C15.6612 14.6535 15.6553 14.628 15.6493 14.6027C15.6395 14.5612 15.6292 14.52 15.6184 14.4788C15.6119 14.4538 15.6054 14.4289 15.5986 14.404C15.5868 14.3611 15.5742 14.3185 15.5615 14.2759C15.5547 14.2535 15.5483 14.231 15.5412 14.2086C15.5254 14.1582 15.5086 14.108 15.4914 14.058C15.4866 14.044 15.4822 14.0299 15.4772 14.0159C15.4546 13.9518 15.4308 13.888 15.4058 13.8246C15.4004 13.811 15.3946 13.7976 15.3891 13.784C15.3693 13.7347 15.349 13.6856 15.3278 13.6369C15.3184 13.6152 15.3085 13.5938 15.2988 13.5723C15.2805 13.5317 15.2621 13.4913 15.2428 13.4511C15.2316 13.4276 15.22 13.4043 15.2085 13.3809C15.1896 13.3428 15.1704 13.3048 15.1507 13.2671C15.1383 13.2434 15.1259 13.2199 15.1132 13.1965C15.0928 13.1587 15.0719 13.1212 15.0506 13.0839C15.0378 13.0614 15.0252 13.039 15.0122 13.0167C14.9885 12.9764 14.9641 12.9365 14.9394 12.8966C14.9279 12.8781 14.9168 12.8593 14.9051 12.8409C14.8683 12.783 14.8306 12.7255 14.7916 12.6686C14.7553 12.6157 14.718 12.5637 14.6802 12.5121C14.6692 12.4972 14.6581 12.4824 14.647 12.4676C14.618 12.4288 14.5885 12.3905 14.5586 12.3524C14.5478 12.3388 14.5371 12.3249 14.5261 12.3113C14.4865 12.2618 14.4461 12.2128 14.405 12.1648C14.3996 12.1586 14.3941 12.1525 14.3887 12.1463C14.3524 12.1042 14.3154 12.0628 14.278 12.0219C14.2651 12.0078 14.2522 11.9939 14.2392 11.9799C14.206 11.9443 14.1724 11.9092 14.1383 11.8745C14.1271 11.863 14.1161 11.8515 14.1048 11.8402C14.0605 11.7957 14.0155 11.7519 13.9698 11.7089C13.9604 11.7001 13.9508 11.6915 13.9413 11.6827C13.904 11.648 13.8663 11.6139 13.8282 11.5803C13.8137 11.5676 13.7991 11.5549 13.7845 11.5422C13.7465 11.5094 13.7081 11.4771 13.6692 11.4453C13.6587 11.4367 13.6483 11.4278 13.6377 11.4192C13.589 11.3799 13.5397 11.3415 13.4898 11.3038C13.4773 11.2944 13.4647 11.2853 13.4522 11.276C13.4131 11.247 13.3737 11.2184 13.3339 11.1904C13.3182 11.1794 13.3026 11.1684 13.2869 11.1576C13.2425 11.1269 13.1976 11.0969 13.1523 11.0674C13.1444 11.0623 13.1366 11.0569 13.1287 11.0518C13.0829 11.0225 13.0368 10.9936 12.9902 10.9655C13.0023 10.954 13.0135 10.9419 13.0254 10.9303C13.0587 10.898 13.0914 10.8653 13.1236 10.832C13.1416 10.8134 13.1595 10.7948 13.1771 10.7759C13.2123 10.7383 13.2465 10.7 13.2803 10.6611C13.2947 10.6447 13.3092 10.6283 13.3233 10.6115C13.3593 10.5689 13.3943 10.5254 13.4287 10.4813C13.44 10.4669 13.4516 10.4527 13.4626 10.4382C13.4972 10.3928 13.5305 10.3465 13.5633 10.2998C13.7728 10.3306 13.9839 10.3461 14.1944 10.3461C14.9222 10.3461 15.6083 10.1656 16.2118 9.84833C17.8685 10.6332 18.9259 12.2846 18.9259 14.124V15.4703H15.7868Z"/>
</svg>
