<svg width="16" height="16" viewBox="0 0 16 16" fill="none" xmlns="http://www.w3.org/2000/svg">
<path d="M15.8983 7.68906C15.7554 7.49353 12.3496 2.90137 7.99992 2.90137C3.65019 2.90137 0.244313 7.49353 0.101531 7.68888C-0.0338438 7.87438 -0.0338438 8.12597 0.101531 8.31147C0.244313 8.507 3.65019 13.0992 7.99992 13.0992C12.3496 13.0992 15.7554 8.50697 15.8983 8.31163C16.0339 8.12616 16.0339 7.87438 15.8983 7.68906ZM7.99992 12.0442C4.79588 12.0442 2.02085 8.99632 1.19938 7.99991C2.01979 7.00263 4.78901 3.95631 7.99992 3.95631C11.2038 3.95631 13.9787 7.00369 14.8005 8.00063C13.9801 8.99788 11.2108 12.0442 7.99992 12.0442Z" fill="black" fill-opacity="0.5"/>
<path d="M7.99993 4.83496C6.25486 4.83496 4.83508 6.25474 4.83508 7.99981C4.83508 9.74488 6.25486 11.1647 7.99993 11.1647C9.74499 11.1647 11.1648 9.74488 11.1648 7.99981C11.1648 6.25474 9.74499 4.83496 7.99993 4.83496ZM7.99993 10.1097C6.83649 10.1097 5.89005 9.16322 5.89005 7.99981C5.89005 6.8364 6.83652 5.88993 7.99993 5.88993C9.16333 5.88993 10.1098 6.8364 10.1098 7.99981C10.1098 9.16322 9.16336 10.1097 7.99993 10.1097Z" fill="black" fill-opacity="0.5"/>
</svg>
