<svg width="12" height="12" viewBox="0 0 12 12" fill="none" xmlns="http://www.w3.org/2000/svg">
<g clip-path="url(#clip0_31_593)">
<path d="M11.9686 4.6024C11.8896 4.35941 11.6741 4.18738 11.4201 4.1644L7.95607 3.84991L6.58706 0.644782C6.48599 0.409304 6.256 0.257324 6.00002 0.257324C5.74403 0.257324 5.51395 0.409304 5.41352 0.644782L4.04451 3.84991L0.579912 4.1644C0.32594 4.18784 0.110879 4.35987 0.0314104 4.6024C-0.047601 4.84538 0.0253678 5.1119 0.217449 5.28036L2.83599 7.57645L2.06392 10.977C2.00743 11.227 2.10447 11.4855 2.31194 11.6355C2.42345 11.7165 2.55446 11.757 2.68593 11.757C2.79891 11.757 2.91198 11.727 3.01297 11.6665L6.00002 9.8805L8.98652 11.6665C9.20561 11.7975 9.48109 11.7855 9.6881 11.6355C9.89556 11.4855 9.99261 11.227 9.93612 10.977L9.16404 7.57645L11.7826 5.28036C11.9746 5.1119 12.0476 4.84593 11.9686 4.6024Z" fill="#84BB59"/>
</g>
<defs>
<clipPath id="clip0_31_593">
<rect width="12" height="12" fill="white"/>
</clipPath>
</defs>
</svg>
