<svg width="24" height="24" viewBox="0 0 24 24" fill="none" xmlns="http://www.w3.org/2000/svg">
<g clip-path="url(#clip0_2_74)">
<path d="M12 0C5.60395 0 1.47441 6.77794 4.34423 12.4457L8.74911 21.9258C10.035 24.6934 13.9669 24.6894 15.2509 21.9258L19.6558 12.4457C22.5245 6.7801 18.3989 0 12 0V0ZM18.3052 11.7744C18.2964 11.7917 18.5047 11.3441 13.8832 21.2902C13.1372 22.8956 10.8636 22.8971 10.1169 21.2902C5.51285 11.3816 5.70406 11.7926 5.69492 11.7745C3.34232 7.14631 6.68444 1.5082 12 1.5082C17.3125 1.5082 20.6593 7.14264 18.3052 11.7744Z" fill="black" fill-opacity="0.25"/>
<path d="M12 4.38647C9.68956 4.38647 7.80988 6.26616 7.80988 8.57657C7.80988 10.887 9.68956 12.7667 12 12.7667C14.3104 12.7667 16.1901 10.887 16.1901 8.57657C16.1901 6.26616 14.3104 4.38647 12 4.38647ZM12 11.2585C10.5211 11.2585 9.31807 10.0554 9.31807 8.57662C9.31807 7.09778 10.5211 5.89472 12 5.89472C13.4788 5.89472 14.6819 7.09778 14.6819 8.57662C14.6819 10.0554 13.4788 11.2585 12 11.2585Z" fill="black" fill-opacity="0.25"/>
</g>
<defs>
<clipPath id="clip0_2_74">
<rect width="24" height="24" fill="white"/>
</clipPath>
</defs>
</svg>
