<svg width="40" height="40" viewBox="0 0 40 40" fill="none" xmlns="http://www.w3.org/2000/svg">
<circle cx="20" cy="20" r="20" fill="#DF7070"/>
<g clip-path="url(#clip0_1783_730)">
<path d="M21.815 19.9999L27.9731 13.8415C28.1425 13.672 28.2359 13.4458 28.2362 13.2046C28.2362 12.9633 28.1427 12.7369 27.9731 12.5676L27.4334 12.0281C27.2638 11.8582 27.0376 11.7651 26.7962 11.7651C26.5551 11.7651 26.329 11.8582 26.1593 12.0281L20.0012 18.1861L13.8428 12.0281C13.6734 11.8582 13.4471 11.7651 13.2058 11.7651C12.9648 11.7651 12.7385 11.8582 12.5691 12.0281L12.0292 12.5676C11.6778 12.919 11.6778 13.4905 12.0292 13.8415L18.1874 19.9999L12.0292 26.158C11.8596 26.3278 11.7663 26.554 11.7663 26.7952C11.7663 27.0363 11.8596 27.2625 12.0292 27.4321L12.5689 27.9717C12.7383 28.1415 12.9648 28.2347 13.2057 28.2347C13.447 28.2347 13.6733 28.1415 13.8427 27.9717L20.0011 21.8135L26.1592 27.9717C26.3288 28.1415 26.555 28.2347 26.796 28.2347H26.7963C27.0375 28.2347 27.2636 28.1415 27.4333 27.9717L27.973 27.4321C28.1423 27.2626 28.2358 27.0363 28.2358 26.7952C28.2358 26.554 28.1423 26.3278 27.973 26.1582L21.815 19.9999Z" fill="white"/>
</g>
<defs>
<clipPath id="clip0_1783_730">
<rect width="16.4706" height="16.4706" fill="white" transform="translate(11.7656 11.7646)"/>
</clipPath>
</defs>
</svg>
