<svg width="20" height="20" viewBox="0 0 20 20" fill="none" xmlns="http://www.w3.org/2000/svg">
<g clip-path="url(#clip0_84_2357)">
<path d="M19.9477 7.67056C19.816 7.26559 19.4568 6.97887 19.0335 6.94057L13.2601 6.41642L10.9784 1.07453C10.81 0.682072 10.4267 0.428772 10 0.428772C9.57338 0.428772 9.18992 0.682072 9.02253 1.07453L6.74085 6.41642L0.96652 6.94057C0.543234 6.97963 0.184799 7.26635 0.0523506 7.67056C-0.0793349 8.07554 0.0422796 8.51973 0.362414 8.80049L4.72665 12.6273L3.43986 18.2948C3.34571 18.7115 3.50746 19.1425 3.85323 19.3924C4.03908 19.5274 4.25744 19.5949 4.47656 19.5949C4.66485 19.5949 4.8533 19.5448 5.02161 19.4441L10 16.4674L14.9775 19.4441C15.3427 19.6623 15.8018 19.6423 16.1468 19.3924C16.4926 19.1425 16.6543 18.7115 16.5602 18.2948L15.2734 12.6273L19.6376 8.80049C19.9576 8.51973 20.0794 8.07645 19.9477 7.67056Z" fill="#F6F7F9"/>
<!--<path d="M18.9885 7.43853L18.9883 7.43852L13.2149 6.91437L12.9176 6.88738L12.8003 6.61282L10.519 1.27175C10.5189 1.27158 10.5188 1.27141 10.5188 1.27124C10.4288 1.06214 10.2259 0.928772 10 0.928772C9.7737 0.928772 9.57124 1.06252 9.48245 1.2707L9.48234 1.27093L7.20066 6.61282L7.08338 6.88738L6.78605 6.91437L1.01247 7.43845C1.01232 7.43847 1.01217 7.43848 1.01202 7.43849C0.788394 7.45931 0.598403 7.61059 0.527676 7.82569C0.457939 8.04085 0.522707 8.276 0.692062 8.42455C0.692074 8.42456 0.692086 8.42457 0.692098 8.42458L5.0563 12.2514L5.28017 12.4477L5.21424 12.738L3.92757 18.405C3.92755 18.4051 3.92754 18.4051 3.92753 18.4052C3.87733 18.6277 3.96364 18.8553 4.14614 18.9872L4.14713 18.9879C4.2454 19.0593 4.36033 19.0949 4.47656 19.0949C4.57609 19.0949 4.67557 19.0685 4.76488 19.0151L4.76502 19.015L9.74343 16.0383L10 15.8848L10.2567 16.0383L15.234 19.0149C15.4276 19.1306 15.6705 19.1201 15.8535 18.9875L15.8539 18.9872C16.0363 18.8553 16.1226 18.6279 16.0726 18.4055L18.9885 7.43853ZM18.9885 7.43853C19.212 7.45876 19.4021 7.60996 19.4721 7.82486C19.5423 8.04119 19.4774 8.2759 19.3079 8.42466L14.9438 12.2514L14.7199 12.4477L14.7858 12.738L16.0725 18.405L18.9885 7.43853Z" stroke="black" stroke-opacity="0.1"/>-->
</g>
<defs>
<clipPath id="clip0_84_2357">
<rect width="20" height="20" fill="white"/>
</clipPath>
</defs>
</svg>
