<svg width="20" height="20" viewBox="0 0 20 20" fill="none" xmlns="http://www.w3.org/2000/svg">
<g clip-path="url(#clip0_84_2355)">
<path d="M19.9477 7.67056C19.816 7.26559 19.4568 6.97887 19.0335 6.94057L13.2601 6.41642L10.9784 1.07453C10.81 0.682072 10.4267 0.428772 10 0.428772C9.57338 0.428772 9.18992 0.682072 9.02253 1.07453L6.74085 6.41642L0.96652 6.94057C0.543234 6.97963 0.184799 7.26635 0.0523506 7.67056C-0.0793349 8.07554 0.0422796 8.51973 0.362414 8.80049L4.72665 12.6273L3.43986 18.2948C3.34571 18.7115 3.50746 19.1425 3.85323 19.3924C4.03908 19.5274 4.25744 19.5949 4.47656 19.5949C4.66485 19.5949 4.8533 19.5448 5.02161 19.4441L10 16.4674L14.9775 19.4441C15.3427 19.6623 15.8018 19.6423 16.1468 19.3924C16.4926 19.1425 16.6543 18.7115 16.5602 18.2948L15.2734 12.6273L19.6376 8.80049C19.9576 8.51973 20.0794 8.07645 19.9477 7.67056Z" fill="#84BB59"/>
</g>
<defs>
<clipPath id="clip0_84_2355">
<rect width="20" height="20" fill="white"/>
</clipPath>
</defs>
</svg>
