<svg width="22" height="24" viewBox="0 0 22 24" fill="black" fill-opacity="0.25" xmlns="http://www.w3.org/2000/svg">
<path d="M21.5468 9.23325C21.5466 9.05142 21.4734 8.86969 21.3409 8.73717L18.7344 6.13064V0.703125C18.7344 0.314812 18.4196 0 18.0312 0H3.96875C3.58044 0 3.26562 0.314812 3.26562 0.703125V6.13064L0.659094 8.73717C0.656656 8.73961 0.654594 8.74233 0.652203 8.74481C0.520438 8.88056 0.453453 9.0593 0.453172 9.23325C0.453172 9.23372 0.453125 9.23414 0.453125 9.23461V21.8906C0.453125 23.0552 1.40075 24 2.5625 24H19.4375C20.6018 24 21.5469 23.0528 21.5469 21.8906V9.23461C21.5469 9.23414 21.5468 9.23372 21.5468 9.23325ZM18.7344 8.11936L19.8494 9.23438L18.7344 10.3494V8.11936ZM4.67188 6.42211C4.67188 6.42197 4.67188 6.42178 4.67188 6.42164V1.40625H17.3281V6.42164C17.3281 6.42178 17.3281 6.42197 17.3281 6.42211V11.7556L13.5213 15.5625H8.47873L4.67188 11.7556V6.42211ZM3.26562 8.11936V10.3494L2.15061 9.23438L3.26562 8.11936ZM1.85938 21.5994V10.9319L7.19314 16.2656L1.85938 21.5994ZM2.85378 22.5938L8.47873 16.9688H13.5213L19.1462 22.5938H2.85378ZM20.1406 21.5994L14.8069 16.2656L20.1406 10.9319V21.5994Z"/>
</svg>
