<svg width="20" height="12" viewBox="0 0 20 12" fill="none" xmlns="http://www.w3.org/2000/svg">
<path d="M8.57873 11.4279C8.47757 11.3264 8.39219 11.2163 8.31794 11.1004L0.566965 3.34909C-0.188869 2.5929 -0.189228 1.36606 0.567323 0.609508C1.32352 -0.147043 2.55 -0.147043 3.30691 0.609507L9.98242 7.28502L16.6927 0.57507C17.4489 -0.181482 18.675 -0.181482 19.4323 0.57507C19.8111 0.953524 19.9998 1.44964 19.9998 1.94468C19.9998 2.43972 19.8111 2.9362 19.4323 3.31429L11.6455 11.1004C11.5712 11.2163 11.4858 11.3271 11.3847 11.4279C10.998 11.8146 10.4886 12.0012 9.9817 11.9919C9.47483 12.0012 8.9658 11.8146 8.57873 11.4279Z" fill="#84BB59"/>
</svg>
