<svg width="20" height="12" viewBox="0 0 20 12" fill="none" xmlns="http://www.w3.org/2000/svg">
<path d="M11.4213 0.572061C11.5224 0.67358 11.6078 0.783709 11.6821 0.899577L19.433 8.65091C20.1889 9.4071 20.1892 10.6339 19.4327 11.3905C18.6765 12.147 17.45 12.147 16.6931 11.3905L10.0176 4.71498L3.30727 11.4249C2.55107 12.1815 1.32495 12.1815 0.567682 11.4249C0.188869 11.0465 0.000180737 10.5504 0.000180759 10.0553C0.000180781 9.56028 0.188869 9.0638 0.567682 8.6857L8.35453 0.899577C8.42878 0.783708 8.51416 0.672862 8.61532 0.572061C9.00203 0.185355 9.51142 -0.00118177 10.0183 0.00814511C10.5252 -0.00118172 11.0342 0.185355 11.4213 0.572061Z" fill="#84BB59"/>
</svg>
