<svg width="20" height="20" viewBox="0 0 20 20" fill="#84BB59" xmlns="http://www.w3.org/2000/svg">
<path d="M8.30221 16.2829C8.0502 16.0309 7.64173 16.0309 7.38972 16.2829L5.69942 17.9732C5.44741 18.2248 5.44741 18.6337 5.69942 18.8853C5.94966 19.1364 6.35861 19.1386 6.61191 18.8853L8.30221 17.195C8.55422 16.943 8.55422 16.5345 8.30221 16.2829ZM3.71719 11.6979C3.46558 11.4459 3.05712 11.4459 2.80511 11.6979L1.11481 13.3882C0.862798 13.6402 0.862798 14.0486 1.11481 14.3007C1.36642 14.5522 1.77424 14.5533 2.02689 14.3007L3.71719 12.6104C3.96921 12.3584 3.96921 11.9499 3.71719 11.6979ZM6.77401 13.2261C6.52199 12.9741 6.11353 12.9745 5.86152 13.2261L1.57771 17.5099C1.32569 17.7619 1.32569 18.1704 1.57771 18.4224C1.82964 18.6736 2.23729 18.6745 2.49019 18.4224L6.77401 14.1386C7.02602 13.8866 7.02602 13.4781 6.77401 13.2261ZM19.9674 0.846456L13.8537 19.5559C13.6809 20.084 12.9633 20.161 12.6828 19.6797L8.57156 12.6092C8.44172 12.3862 8.45745 12.1076 8.61108 11.9003L10.0873 9.91286L8.09979 11.389C7.89254 11.5427 7.61391 11.5584 7.39093 11.4286L0.320467 7.31729C-0.159204 7.0383 -0.0854143 6.31968 0.444256 6.14634L19.1537 0.032718C19.6537 -0.130465 20.1313 0.344286 19.9674 0.846456Z"/>
</svg>
