<svg width="17" height="17" viewBox="0 0 17 17" fill="none" xmlns="http://www.w3.org/2000/svg">
<circle cx="8.5" cy="8.5" r="8.5" fill="#DF7070"/>
<path d="M9.27097 8.49977L11.8882 5.88246C11.9602 5.81041 11.9999 5.71428 12 5.61179C12 5.50924 11.9603 5.413 11.8882 5.34107L11.6588 5.11177C11.5867 5.03955 11.4906 5 11.388 5C11.2855 5 11.1894 5.03955 11.1173 5.11177L8.50011 7.72892L5.8828 5.11177C5.8108 5.03955 5.71463 5 5.61207 5C5.50963 5 5.41346 5.03955 5.34146 5.11177L5.112 5.34107C4.96267 5.4904 4.96267 5.73329 5.112 5.88246L7.72926 8.49977L5.112 11.117C5.03995 11.1891 5.00028 11.2853 5.00028 11.3878C5.00028 11.4903 5.03995 11.5864 5.112 11.6585L5.34141 11.8878C5.4134 11.9599 5.50963 11.9995 5.61202 11.9995C5.71457 11.9995 5.81075 11.9599 5.88274 11.8878L8.50006 9.27057L11.1173 11.8878C11.1894 11.9599 11.2855 11.9995 11.3879 11.9995H11.388C11.4905 11.9995 11.5867 11.9599 11.6588 11.8878L11.8881 11.6585C11.9601 11.5864 11.9998 11.4903 11.9998 11.3878C11.9998 11.2853 11.9601 11.1891 11.8881 11.117L9.27097 8.49977Z" fill="white"/>
</svg>
