<svg width="20" height="20" viewBox="0 0 20 20" fill="none" xmlns="http://www.w3.org/2000/svg">
<g clip-path="url(#clip0_242_6579)">
<path d="M16.2809 9.63373C16.1893 9.35743 15.9577 9.15091 15.6727 9.09122L11.7501 8.27023L12.9335 0.948146C12.9921 0.58521 12.8013 0.227704 12.467 0.0745762C12.1324 -0.078825 11.7373 0.0097313 11.5007 0.291455L3.87131 9.36505C3.69775 9.57158 3.63724 9.85088 3.70974 10.1108C3.78221 10.3708 3.97869 10.5784 4.23428 10.6651L8.03892 11.9563L6.5046 19.009C6.42557 19.3727 6.60214 19.7439 6.93429 19.912C7.05172 19.9714 7.17816 20 7.30324 20C7.53212 20 7.7572 19.9038 7.91634 19.7234L16.118 10.4323C16.3106 10.2141 16.3727 9.91002 16.2809 9.63373ZM8.77026 16.2853L9.7918 11.5904C9.88036 11.1839 9.64957 10.776 9.25582 10.6425L5.89259 9.50103L10.8476 3.60862L10.0119 8.77949C9.94216 9.21056 10.2239 9.62037 10.6514 9.71002L13.9629 10.4029L8.77026 16.2853Z" fill="#EF8F21"/>
</g>
<defs>
<clipPath id="clip0_242_6579">
<rect width="20" height="20" fill="white"/>
</clipPath>
</defs>
</svg>
