<svg width="20" height="20" viewBox="0 0 20 20" fill="none" xmlns="http://www.w3.org/2000/svg">
<g clip-path="url(#clip0_242_6574)">
<path d="M18.0292 3.54129C17.9214 2.15005 16.7557 1.05078 15.3374 1.05078H2.70086C1.2116 1.05078 0 2.26238 0 3.75164V16.2479C0 17.7372 1.2116 18.9488 2.70086 18.9488H17.2992C18.7884 18.9488 20 17.7372 20 16.2479V6.14105C20 4.90481 19.1648 3.86066 18.0292 3.54129ZM2.70086 2.3125H15.3374C16.024 2.3125 16.5994 2.79593 16.7422 3.44023H2.70086C2.17208 3.44023 1.67871 3.59357 1.26172 3.85727V3.75164C1.26172 2.9581 1.90732 2.3125 2.70086 2.3125ZM17.2991 17.687H2.70086C1.90732 17.687 1.26172 17.0414 1.26172 16.2479V6.14105C1.26172 5.34751 1.90732 4.70191 2.70086 4.70191H17.2992C18.0927 4.70191 18.7383 5.34751 18.7383 6.14105V8.34267H14.7156C13.1215 8.34267 11.8246 9.63959 11.8246 11.2337C11.8246 12.8278 13.1215 14.1247 14.7156 14.1247H18.7383V16.2479C18.7383 17.0414 18.0927 17.687 17.2991 17.687ZM18.7383 12.863H14.7156C13.8172 12.863 13.0863 12.1321 13.0863 11.2337C13.0863 10.3353 13.8172 9.60438 14.7156 9.60438H18.7383V12.863Z" fill="#EF8F21"/>
<path d="M14.9498 11.9386C15.3125 11.9386 15.6066 11.6445 15.6066 11.2818C15.6066 10.9191 15.3125 10.625 14.9498 10.625C14.587 10.625 14.293 10.9191 14.293 11.2818C14.293 11.6445 14.587 11.9386 14.9498 11.9386Z" fill="#EF8F21"/>
</g>
<defs>
<clipPath id="clip0_242_6574">
<rect width="20" height="20" fill="white"/>
</clipPath>
</defs>
</svg>
