<svg width="20" height="12" viewBox="0 0 20 12" fill="none" xmlns="http://www.w3.org/2000/svg">
<path d="M19.8218 10.4726C19.768 10.3825 19.4355 9.65999 17.8354 8.17488C16.1602 6.61977 16.3853 6.87229 18.4029 4.18334C19.6318 2.54571 20.123 1.54564 19.9693 1.11811C19.823 0.710576 18.9192 0.818084 18.9192 0.818084L15.914 0.835586C15.914 0.835586 15.6915 0.805583 15.5252 0.904341C15.3639 1.00185 15.2602 1.22686 15.2602 1.22686C15.2602 1.22686 14.7839 2.49446 14.1488 3.57204C12.81 5.84596 12.2737 5.96597 12.0549 5.82471C11.5461 5.49593 11.6737 4.50211 11.6737 3.79706C11.6737 1.59314 12.0074 0.674324 11.0224 0.436806C10.6948 0.35805 10.4548 0.305546 9.6185 0.296796C8.54592 0.285545 7.6371 0.300546 7.12331 0.551815C6.78079 0.719327 6.51702 1.09311 6.67828 1.11436C6.87704 1.14061 7.32708 1.23562 7.56585 1.56064C7.87462 1.97942 7.86337 2.92199 7.86337 2.92199C7.86337 2.92199 8.04088 5.51593 7.44959 5.83846C7.04331 6.05972 6.48701 5.60844 5.29317 3.54454C4.68188 2.48821 4.21935 1.31937 4.21935 1.31937C4.21935 1.31937 4.13059 1.10186 3.97183 0.985597C3.77931 0.844337 3.50929 0.799333 3.50929 0.799333L0.651578 0.816834C0.651578 0.816834 0.222796 0.829336 0.0652839 1.0156C-0.0747265 1.18186 0.0540331 1.52439 0.0540331 1.52439C0.0540331 1.52439 2.2917 6.75853 4.82439 9.39747C7.14831 11.8164 9.78601 11.6576 9.78601 11.6576H10.9811C10.9811 11.6576 11.3424 11.6176 11.5261 11.4189C11.6962 11.2364 11.6899 10.8938 11.6899 10.8938C11.6899 10.8938 11.6662 9.28997 12.4112 9.0537C13.145 8.82118 14.0876 10.6038 15.0864 11.2901C15.8415 11.8089 16.4153 11.6951 16.4153 11.6951L19.0867 11.6576C19.0867 11.6576 20.4843 11.5714 19.8218 10.4726Z" fill="white"/>
</svg>
