<svg width="20" height="20" viewBox="0 0 20 20" fill="none" xmlns="http://www.w3.org/2000/svg">
<path fill-rule="evenodd" clip-rule="evenodd" d="M16.6329 3.34007C14.8788 1.58386 12.5459 0.616264 10.0606 0.615234C4.93934 0.615234 0.7714 4.78306 0.769341 9.90566C0.768654 11.5432 1.19643 13.1417 2.00954 14.5507L0.691406 19.3652L5.61683 18.0732C6.97398 18.8135 8.50188 19.2036 10.0568 19.2041H10.0607C15.1813 19.2041 19.3497 15.0359 19.3517 9.9131C19.3527 7.43042 18.3872 5.09617 16.6329 3.34007ZM10.0606 17.635H10.0574C8.67171 17.6344 7.31273 17.262 6.12689 16.5586L5.84502 16.3911L2.9222 17.1579L3.70235 14.3082L3.51867 14.016C2.74562 12.7865 2.33741 11.3654 2.3381 9.90623C2.3397 5.64846 5.80405 2.18445 10.0637 2.18445C12.1263 2.18513 14.0653 2.98943 15.5233 4.44912C16.9813 5.90881 17.7837 7.84904 17.783 9.91253C17.7812 14.1706 14.3171 17.635 10.0606 17.635ZM14.2965 11.8513C14.0644 11.735 12.923 11.1736 12.7101 11.096C12.4975 11.0185 12.3425 10.9799 12.1879 11.2122C12.0331 11.4445 11.5882 11.9675 11.4527 12.1224C11.3172 12.2773 11.182 12.2968 10.9498 12.1805C10.7176 12.0644 9.96959 11.8191 9.08279 11.0282C8.39271 10.4126 7.92682 9.6524 7.79132 9.42009C7.65605 9.18754 7.79018 9.07402 7.89317 8.9463C8.14448 8.63422 8.39614 8.30704 8.4735 8.1522C8.55098 7.99724 8.51218 7.86163 8.45405 7.74547C8.39614 7.62932 7.93185 6.48662 7.73845 6.02165C7.54985 5.56915 7.35862 5.63026 7.21603 5.62317C7.08076 5.61642 6.92592 5.61504 6.77108 5.61504C6.61635 5.61504 6.36481 5.67306 6.15195 5.90561C5.93921 6.13804 5.33954 6.6996 5.33954 7.84229C5.33954 8.98498 6.17141 10.0889 6.28745 10.2438C6.40349 10.3988 7.92453 12.7437 10.2533 13.7492C10.8072 13.9886 11.2395 14.1313 11.5768 14.2383C12.133 14.415 12.6389 14.39 13.039 14.3303C13.4851 14.2636 14.4124 13.7686 14.606 13.2264C14.7995 12.6841 14.7995 12.2193 14.7413 12.1224C14.6834 12.0256 14.5286 11.9675 14.2965 11.8513Z" fill="white"/>
</svg>
