<svg width="16" height="10" viewBox="0 0 16 10" fill="none" xmlns="http://www.w3.org/2000/svg">
<path d="M9.13702 0.657454C9.21794 0.738669 9.28625 0.826772 9.34565 0.919466L15.5464 7.12053C16.1511 7.72548 16.1514 8.70696 15.5461 9.3122C14.9412 9.91744 13.96 9.91744 13.3545 9.3122L8.01406 3.97179L2.64582 9.33975C2.04086 9.94499 1.05996 9.94499 0.454147 9.33975C0.151096 9.03698 0.000146013 8.64009 0.000146008 8.24406C0.000146003 7.84803 0.151096 7.45084 0.454147 7.14837L6.68362 0.919466C6.74303 0.826772 6.81133 0.738095 6.89226 0.657454C7.20162 0.348089 7.60913 0.19886 8.01464 0.206321C8.42014 0.19886 8.82736 0.348089 9.13702 0.657454Z" fill="#84BB59"/>
</svg>
