<svg width="16" height="10" viewBox="0 0 16 10" fill="none" xmlns="http://www.w3.org/2000/svg">
<path d="M6.86298 9.34255C6.78206 9.26133 6.71375 9.17323 6.65435 9.08053L0.453572 2.87947C-0.151095 2.27452 -0.151382 1.29304 0.453859 0.687802C1.05881 0.0825614 2.04 0.0825614 2.64553 0.687802L7.98594 6.02821L13.3542 0.660252C13.9591 0.0550111 14.94 0.0550111 15.5459 0.660252C15.8489 0.963016 15.9999 1.35991 15.9999 1.75594C15.9999 2.15197 15.8489 2.54915 15.5459 2.85163L9.31638 9.08053C9.25697 9.17323 9.18867 9.2619 9.10774 9.34255C8.79838 9.65191 8.39087 9.80114 7.98536 9.79368C7.57986 9.80114 7.17264 9.65191 6.86298 9.34255Z" fill="#84BB59"/>
</svg>
